Saira-PARAMETRIC-JUN_XTRA110.ufo
<glyph name="quotesingle" format="2">
  <advance width="137"/>
  <unicode hex="0027"/>
  <anchor x="0" y="0" name="#entry"/>
  <anchor x="134" y="0" name="#exit"/>
  <outline>
    <contour>
      <point x="40" y="444" type="line"/>
      <point x="96" y="444" type="line"/>
      <point x="108" y="612" type="line"/>
      <point x="108" y="688" type="line"/>
      <point x="29" y="688" type="line"/>
      <point x="29" y="612" type="line"/>
    </contour>
  </outline>
</glyph>
<glyph name="comma" format="2">
  <advance width="168"/>
  <unicode hex="002C"/>
  <outline>
    <contour>
      <point x="29" y="-120" type="line"/>
      <point x="111" y="-120"/>
      <point x="128" y="-100"/>
      <point x="128" y="0" type="curve" smooth="yes"/>
      <point x="128" y="110" type="line"/>
      <point x="40" y="110" type="line"/>
      <point x="40" y="0" type="line"/>
      <point x="76" y="0" type="line"/>
      <point x="76" y="-27" type="line" smooth="yes"/>
      <point x="76" y="-67"/>
      <point x="68" y="-75"/>
      <point x="29" y="-75" type="curve"/>
    </contour>
  </outline>
</glyph>
<glyph name="A" format="2">
  <advance width="342"/>
  <unicode hex="0041"/>
  <anchor x="171" y="0" name="bottom"/>
  <anchor x="308" y="10" name="ogonek"/>
  <anchor x="171" y="688" name="top"/>
  <outline>
    <contour>
      <point x="6" y="0" type="line"/>
      <point x="89" y="0" type="line"/>
      <point x="169" y="620" type="line"/>
      <point x="173" y="620" type="line"/>
      <point x="253" y="0" type="line"/>
      <point x="336" y="0" type="line"/>
      <point x="239" y="688" type="line"/>
      <point x="103" y="688" type="line"/>
    </contour>
    <contour>
      <point x="69" y="189" type="line"/>
      <point x="273" y="189" type="line"/>
      <point x="248" y="263" type="line"/>
      <point x="94" y="263" type="line"/>
    </contour>
  </outline>
</glyph>
<glyph name="B" format="2">
  <advance width="405"/>
  <unicode hex="0042"/>
  <anchor x="291" y="0" name="bottom"/>
  <anchor x="291" y="688" name="top"/>
  <outline>
    <contour>
      <point x="60" y="0" type="line"/>
      <point x="176" y="0" type="line" smooth="yes"/>
      <point x="315" y="0"/>
      <point x="354" y="40"/>
      <point x="354" y="190" type="curve" smooth="yes"/>
      <point x="354" y="197" type="line" smooth="yes"/>
      <point x="354" y="335"/>
      <point x="314" y="375"/>
      <point x="176" y="375" type="curve" smooth="yes"/>
      <point x="126" y="375" type="line"/>
      <point x="126" y="315" type="line"/>
      <point x="176" y="315" type="line" smooth="yes"/>
      <point x="256" y="315"/>
      <point x="272" y="299"/>
      <point x="272" y="211" type="curve" smooth="yes"/>
      <point x="272" y="176" type="line" smooth="yes"/>
      <point x="272" y="89"/>
      <point x="256" y="74"/>
      <point x="176" y="74" type="curve" smooth="yes"/>
      <point x="105" y="74" type="line"/>
      <point x="142" y="43" type="line"/>
      <point x="142" y="645" type="line"/>
      <point x="105" y="614" type="line"/>
      <point x="192" y="614" type="line" smooth="yes"/>
      <point x="248" y="614"/>
      <point x="258" y="600"/>
      <point x="258" y="518" type="curve" smooth="yes"/>
      <point x="258" y="483" type="line" smooth="yes"/>
      <point x="258" y="400"/>
      <point x="242" y="385"/>
      <point x="162" y="385" type="curve" smooth="yes"/>
      <point x="126" y="385" type="line"/>
      <point x="126" y="325" type="line"/>
      <point x="162" y="325" type="line" smooth="yes"/>
      <point x="300" y="325"/>
      <point x="340" y="364"/>
      <point x="340" y="497" type="curve" smooth="yes"/>
      <point x="340" y="504" type="line" smooth="yes"/>
      <point x="340" y="649"/>
      <point x="307" y="688"/>
      <point x="192" y="688" type="curve" smooth="yes"/>
      <point x="60" y="688" type="line"/>
    </contour>
  </outline>
</glyph>
<glyph name="C" format="2">
  <advance width="335"/>
  <unicode hex="0043"/>
  <anchor x="157" y="0" name="bottom"/>
  <anchor x="157" y="688" name="top"/>
  <outline>
    <contour>
      <point x="201" y="-8" type="curve" smooth="yes"/>
      <point x="228" y="-8"/>
      <point x="260" y="-5"/>
      <point x="278" y="0" type="curve"/>
      <point x="278" y="73" type="line"/>
      <point x="259" y="69"/>
      <point x="228" y="66"/>
      <point x="201" y="66" type="curve" smooth="yes"/>
      <point x="132" y="66"/>
      <point x="128" y="82"/>
      <point x="128" y="310" type="curve" smooth="yes"/>
      <point x="128" y="378" type="line" smooth="yes"/>
      <point x="128" y="606"/>
      <point x="132" y="622"/>
      <point x="201" y="622" type="curve" smooth="yes"/>
      <point x="220" y="622"/>
      <point x="246" y="620"/>
      <point x="276" y="615" type="curve"/>
      <point x="276" y="686" type="line"/>
      <point x="258" y="692"/>
      <point x="227" y="696"/>
      <point x="201" y="696" type="curve" smooth="yes"/>
      <point x="65" y="696"/>
      <point x="46" y="642"/>
      <point x="46" y="349" type="curve" smooth="yes"/>
      <point x="46" y="339" type="line" smooth="yes"/>
      <point x="46" y="46"/>
      <point x="65" y="-8"/>
    </contour>
  </outline>
</glyph>
<glyph name="D" format="2">
  <advance width="384"/>
  <unicode hex="0044"/>
  <anchor x="197" y="0" name="bottom"/>
  <anchor x="108" y="344" name="center"/>
  <anchor x="197" y="688" name="top"/>
  <outline>
    <contour>
      <point x="60" y="0" type="line"/>
      <point x="173" y="0" type="line" smooth="yes"/>
      <point x="320" y="0"/>
      <point x="338" y="38"/>
      <point x="338" y="339" type="curve" smooth="yes"/>
      <point x="338" y="349" type="line" smooth="yes"/>
      <point x="338" y="650"/>
      <point x="320" y="688"/>
      <point x="173" y="688" type="curve" smooth="yes"/>
      <point x="60" y="688" type="line"/>
    </contour>
    <contour>
      <point x="142" y="37" type="line"/>
      <point x="142" y="651" type="line"/>
      <point x="106" y="614" type="line"/>
      <point x="174" y="614" type="line" smooth="yes"/>
      <point x="252" y="614"/>
      <point x="256" y="601"/>
      <point x="256" y="377" type="curve" smooth="yes"/>
      <point x="256" y="311" type="line" smooth="yes"/>
      <point x="256" y="87"/>
      <point x="252" y="74"/>
      <point x="174" y="74" type="curve" smooth="yes"/>
      <point x="106" y="74" type="line"/>
    </contour>
  </outline>
</glyph>
<glyph name="E" format="2">
  <advance width="333"/>
  <unicode hex="0045"/>
  <anchor x="172" y="0" name="bottom"/>
  <anchor x="293" y="10" name="ogonek"/>
  <anchor x="172" y="688" name="top"/>
  <anchor x="40" y="688" name="topleft"/>
  <outline>
    <contour>
      <point x="105" y="385" type="line"/>
      <point x="105" y="311" type="line"/>
      <point x="276" y="311" type="line"/>
      <point x="276" y="385" type="line"/>
    </contour>
    <contour>
      <point x="142" y="37" type="line"/>
      <point x="142" y="651" type="line"/>
      <point x="105" y="614" type="line"/>
      <point x="303" y="614" type="line"/>
      <point x="303" y="688" type="line"/>
      <point x="60" y="688" type="line"/>
      <point x="60" y="0" type="line"/>
      <point x="303" y="0" type="line"/>
      <point x="303" y="74" type="line"/>
      <point x="105" y="74" type="line"/>
    </contour>
  </outline>
</glyph>
<glyph name="F" format="2">
  <advance width="321"/>
  <unicode hex="0046"/>
  <anchor x="167" y="0" name="bottom"/>
  <anchor x="167" y="688" name="top"/>
  <outline>
    <contour>
      <point x="105" y="375" type="line"/>
      <point x="105" y="301" type="line"/>
      <point x="270" y="301" type="line"/>
      <point x="270" y="375" type="line"/>
    </contour>
    <contour>
      <point x="142" y="0" type="line"/>
      <point x="142" y="651" type="line"/>
      <point x="105" y="614" type="line"/>
      <point x="297" y="614" type="line"/>
      <point x="297" y="688" type="line"/>
      <point x="60" y="688" type="line"/>
      <point x="60" y="0" type="line"/>
    </contour>
  </outline>
</glyph>
<glyph name="G" format="2">
  <advance width="372"/>
  <unicode hex="0047"/>
  <anchor x="201" y="0" name="bottom"/>
  <anchor x="201" y="688" name="top"/>
  <outline>
    <contour>
      <point x="220" y="-8" type="curve" smooth="yes"/>
      <point x="255" y="-8"/>
      <point x="294" y="-3"/>
      <point x="315" y="5" type="curve"/>
      <point x="315" y="370" type="line"/>
      <point x="187" y="370" type="line"/>
      <point x="187" y="300" type="line"/>
      <point x="235" y="300" type="line"/>
      <point x="235" y="67" type="line"/>
      <point x="226" y="66"/>
      <point x="221" y="66"/>
      <point x="207" y="66" type="curve" smooth="yes"/>
      <point x="133" y="66"/>
      <point x="128" y="80"/>
      <point x="128" y="310" type="curve" smooth="yes"/>
      <point x="128" y="378" type="line" smooth="yes"/>
      <point x="128" y="607"/>
      <point x="134" y="622"/>
      <point x="220" y="622" type="curve" smooth="yes"/>
      <point x="254" y="622"/>
      <point x="287" y="619"/>
      <point x="313" y="615" type="curve"/>
      <point x="313" y="686" type="line"/>
      <point x="291" y="692"/>
      <point x="252" y="696"/>
      <point x="220" y="696" type="curve" smooth="yes"/>
      <point x="70" y="696"/>
      <point x="46" y="648"/>
      <point x="46" y="349" type="curve" smooth="yes"/>
      <point x="46" y="339" type="line" smooth="yes"/>
      <point x="46" y="40"/>
      <point x="70" y="-8"/>
    </contour>
  </outline>
</glyph>
<glyph name="H" format="2">
  <advance width="394"/>
  <unicode hex="0048"/>
  <anchor x="197" y="0" name="bottom"/>
  <anchor x="197" y="550" name="center"/>
  <anchor x="197" y="688" name="top"/>
  <anchor x="40" y="688" name="topleft"/>
  <outline>
    <contour>
      <point x="60" y="0" type="line"/>
      <point x="142" y="0" type="line"/>
      <point x="142" y="347" type="line"/>
      <point x="105" y="310" type="line"/>
      <point x="289" y="310" type="line"/>
      <point x="252" y="347" type="line"/>
      <point x="252" y="0" type="line"/>
      <point x="334" y="0" type="line"/>
      <point x="334" y="688" type="line"/>
      <point x="252" y="688" type="line"/>
      <point x="252" y="347" type="line"/>
      <point x="289" y="384" type="line"/>
      <point x="105" y="384" type="line"/>
      <point x="142" y="347" type="line"/>
      <point x="142" y="688" type="line"/>
      <point x="60" y="688" type="line"/>
    </contour>
  </outline>
</glyph>
<glyph name="I" format="2">
  <advance width="202"/>
  <unicode hex="0049"/>
  <anchor x="101" y="0" name="bottom"/>
  <anchor x="166" y="10" name="ogonek"/>
  <anchor x="101" y="688" name="top"/>
  <anchor x="40" y="688" name="topleft"/>
  <outline>
    <contour>
      <point x="60" y="0" type="line"/>
      <point x="142" y="0" type="line"/>
      <point x="142" y="688" type="line"/>
      <point x="60" y="688" type="line"/>
    </contour>
  </outline>
</glyph>
<glyph name="J" format="2">
  <advance width="237"/>
  <unicode hex="004A"/>
  <anchor x="119" y="0" name="bottom"/>
  <anchor x="119" y="688" name="top"/>
  <outline>
    <contour>
      <point x="177" y="688" type="line"/>
      <point x="95" y="688" type="line"/>
      <point x="95" y="141" type="line" smooth="yes"/>
      <point x="95" y="78"/>
      <point x="81" y="66"/>
      <point x="3" y="66" type="curve"/>
      <point x="3" y="-4" type="line"/>
      <point x="138" y="-4"/>
      <point x="177" y="29"/>
      <point x="177" y="148" type="curve" smooth="yes"/>
    </contour>
  </outline>
</glyph>
<glyph name="K" format="2">
  <advance width="380"/>
  <unicode hex="004B"/>
  <anchor x="268" y="0" name="bottom"/>
  <anchor x="268" y="688" name="top"/>
  <outline>
    <contour>
      <point x="137" y="313" type="line"/>
      <point x="172" y="313" type="line"/>
      <point x="285" y="0" type="line"/>
      <point x="374" y="0" type="line"/>
      <point x="240" y="350" type="line"/>
      <point x="368" y="688" type="line"/>
      <point x="279" y="688" type="line"/>
      <point x="172" y="387" type="line"/>
      <point x="137" y="387" type="line"/>
    </contour>
    <contour>
      <point x="60" y="0" type="line"/>
      <point x="142" y="0" type="line"/>
      <point x="142" y="688" type="line"/>
      <point x="60" y="688" type="line"/>
    </contour>
  </outline>
</glyph>
<glyph name="L" format="2">
  <advance width="306"/>
  <unicode hex="004C"/>
  <anchor x="161" y="0" name="bottom"/>
  <anchor x="161" y="344" name="center"/>
  <anchor x="161" y="688" name="top"/>
  <anchor x="282" y="688" name="topright"/>
  <outline>
    <contour>
      <point x="60" y="0" type="line"/>
      <point x="294" y="0" type="line"/>
      <point x="294" y="74" type="line"/>
      <point x="105" y="74" type="line"/>
      <point x="142" y="37" type="line"/>
      <point x="142" y="688" type="line"/>
      <point x="60" y="688" type="line"/>
    </contour>
  </outline>
</glyph>
<glyph name="M" format="2">
  <advance width="472"/>
  <unicode hex="004D"/>
  <outline>
    <contour>
      <point x="60" y="0" type="line"/>
      <point x="142" y="0" type="line"/>
      <point x="142" y="585" type="line"/>
      <point x="189" y="0" type="line"/>
      <point x="283" y="0" type="line"/>
      <point x="330" y="585" type="line"/>
      <point x="330" y="0" type="line"/>
      <point x="412" y="0" type="line"/>
      <point x="412" y="688" type="line"/>
      <point x="271" y="688" type="line"/>
      <point x="236" y="123" type="line"/>
      <point x="201" y="688" type="line"/>
      <point x="60" y="688" type="line"/>
    </contour>
  </outline>
</glyph>
<glyph name="N" format="2">
  <advance width="409"/>
  <unicode hex="004E"/>
  <anchor x="205" y="0" name="bottom"/>
  <anchor x="205" y="688" name="top"/>
  <outline>
    <contour>
      <point x="60" y="0" type="line"/>
      <point x="142" y="0" type="line"/>
      <point x="142" y="516" type="line"/>
      <point x="263" y="0" type="line"/>
      <point x="349" y="0" type="line"/>
      <point x="349" y="688" type="line"/>
      <point x="267" y="688" type="line"/>
      <point x="267" y="172" type="line"/>
      <point x="146" y="688" type="line"/>
      <point x="60" y="688" type="line"/>
    </contour>
  </outline>
</glyph>
<glyph name="O" format="2">
  <advance width="388"/>
  <unicode hex="004F"/>
  <anchor x="194" y="-2" name="bottom"/>
  <anchor x="194" y="344" name="center"/>
  <anchor x="340" y="10" name="ogonek"/>
  <anchor x="194" y="688" name="top"/>
  <anchor x="31" y="688" name="topleft"/>
  <anchor x="357" y="688" name="topright"/>
  <outline>
    <contour>
      <point x="194" y="-8" type="curve" smooth="yes"/>
      <point x="320" y="-8"/>
      <point x="342" y="44"/>
      <point x="342" y="339" type="curve" smooth="yes"/>
      <point x="342" y="349" type="line" smooth="yes"/>
      <point x="342" y="644"/>
      <point x="320" y="696"/>
      <point x="194" y="696" type="curve" smooth="yes"/>
      <point x="68" y="696"/>
      <point x="46" y="644"/>
      <point x="46" y="349" type="curve" smooth="yes"/>
      <point x="46" y="339" type="line" smooth="yes"/>
      <point x="46" y="44"/>
      <point x="68" y="-8"/>
    </contour>
    <contour>
      <point x="194" y="66" type="curve" smooth="yes"/>
      <point x="134" y="66"/>
      <point x="128" y="87"/>
      <point x="128" y="310" type="curve" smooth="yes"/>
      <point x="128" y="378" type="line" smooth="yes"/>
      <point x="128" y="601"/>
      <point x="134" y="622"/>
      <point x="194" y="622" type="curve" smooth="yes"/>
      <point x="254" y="622"/>
      <point x="260" y="601"/>
      <point x="260" y="378" type="curve" smooth="yes"/>
      <point x="260" y="310" type="line" smooth="yes"/>
      <point x="260" y="87"/>
      <point x="254" y="66"/>
    </contour>
  </outline>
</glyph>
<glyph name="P" format="2">
  <advance width="352"/>
  <unicode hex="0050"/>
  <anchor x="183" y="0" name="bottom"/>
  <anchor x="183" y="688" name="top"/>
  <outline>
    <contour>
      <point x="60" y="0" type="line"/>
      <point x="142" y="0" type="line"/>
      <point x="142" y="645" type="line"/>
      <point x="105" y="614" type="line"/>
      <point x="193" y="614" type="line" smooth="yes"/>
      <point x="248" y="614"/>
      <point x="252" y="606"/>
      <point x="252" y="485" type="curve" smooth="yes"/>
      <point x="252" y="450" type="line" smooth="yes"/>
      <point x="252" y="329"/>
      <point x="248" y="321"/>
      <point x="193" y="321" type="curve" smooth="yes"/>
      <point x="121" y="321" type="line"/>
      <point x="121" y="247" type="line"/>
      <point x="183" y="247" type="line" smooth="yes"/>
      <point x="308" y="247"/>
      <point x="334" y="285"/>
      <point x="334" y="464" type="curve" smooth="yes"/>
      <point x="334" y="471" type="line" smooth="yes"/>
      <point x="334" y="650"/>
      <point x="308" y="688"/>
      <point x="183" y="688" type="curve" smooth="yes"/>
      <point x="60" y="688" type="line"/>
    </contour>
  </outline>
</glyph>
<glyph name="R" format="2">
  <advance width="397"/>
  <unicode hex="0052"/>
  <anchor x="202" y="0" name="bottom"/>
  <anchor x="202" y="688" name="top"/>
  <outline>
    <contour>
      <point x="60" y="0" type="line"/>
      <point x="142" y="0" type="line"/>
      <point x="142" y="645" type="line"/>
      <point x="105" y="614" type="line"/>
      <point x="177" y="614" type="line" smooth="yes"/>
      <point x="260" y="614"/>
      <point x="262" y="611"/>
      <point x="262" y="494" type="curve" smooth="yes"/>
      <point x="262" y="461" type="line" smooth="yes"/>
      <point x="262" y="344"/>
      <point x="260" y="341"/>
      <point x="177" y="341" type="curve" smooth="yes"/>
      <point x="126" y="341" type="line"/>
      <point x="126" y="267" type="line"/>
      <point x="167" y="267" type="line" smooth="yes"/>
      <point x="314" y="267"/>
      <point x="344" y="303"/>
      <point x="344" y="474" type="curve" smooth="yes"/>
      <point x="344" y="481" type="line" smooth="yes"/>
      <point x="344" y="652"/>
      <point x="314" y="688"/>
      <point x="167" y="688" type="curve" smooth="yes"/>
      <point x="60" y="688" type="line"/>
    </contour>
    <contour>
      <point x="272" y="0" type="line"/>
      <point x="358" y="0" type="line"/>
      <point x="266" y="289" type="line"/>
      <point x="183" y="289" type="line"/>
    </contour>
  </outline>
</glyph>
<glyph name="S" format="2">
  <advance width="380"/>
  <unicode hex="0053"/>
  <anchor x="190" y="0" name="bottom"/>
  <anchor x="190" y="688" name="top"/>
  <outline>
    <contour>
      <point x="185" y="-8" type="curve" smooth="yes"/>
      <point x="302" y="-8"/>
      <point x="337" y="40"/>
      <point x="337" y="198" type="curve" smooth="yes"/>
      <point x="337" y="339"/>
      <point x="314" y="380"/>
      <point x="230" y="389" type="curve" smooth="yes"/>
      <point x="166" y="396" type="line" smooth="yes"/>
      <point x="129" y="400"/>
      <point x="125" y="409"/>
      <point x="125" y="494" type="curve" smooth="yes"/>
      <point x="125" y="601"/>
      <point x="137" y="622"/>
      <point x="200" y="622" type="curve" smooth="yes"/>
      <point x="235" y="622"/>
      <point x="279" y="615"/>
      <point x="309" y="605" type="curve"/>
      <point x="309" y="677" type="line"/>
      <point x="274" y="688"/>
      <point x="228" y="696"/>
      <point x="195" y="696" type="curve" smooth="yes"/>
      <point x="89" y="696"/>
      <point x="43" y="635"/>
      <point x="43" y="496" type="curve" smooth="yes"/>
      <point x="43" y="365"/>
      <point x="64" y="329"/>
      <point x="148" y="320" type="curve" smooth="yes"/>
      <point x="212" y="313" type="line" smooth="yes"/>
      <point x="251" y="309"/>
      <point x="255" y="297"/>
      <point x="255" y="198" type="curve" smooth="yes"/>
      <point x="255" y="89"/>
      <point x="241" y="66"/>
      <point x="175" y="66" type="curve" smooth="yes"/>
      <point x="136" y="66"/>
      <point x="86" y="73"/>
      <point x="49" y="83" type="curve"/>
      <point x="49" y="11" type="line"/>
      <point x="94" y="-1"/>
      <point x="148" y="-8"/>
    </contour>
  </outline>
</glyph>
<glyph name="T" format="2">
  <advance width="304"/>
  <unicode hex="0054"/>
  <anchor x="152" y="0" name="bottom"/>
  <anchor x="152" y="344" name="center"/>
  <anchor x="152" y="688" name="top"/>
  <outline>
    <contour>
      <point x="111" y="0" type="line"/>
      <point x="193" y="0" type="line"/>
      <point x="193" y="649" type="line"/>
      <point x="158" y="612" type="line"/>
      <point x="298" y="612" type="line"/>
      <point x="298" y="688" type="line"/>
      <point x="6" y="688" type="line"/>
      <point x="6" y="612" type="line"/>
      <point x="146" y="612" type="line"/>
      <point x="111" y="649" type="line"/>
    </contour>
  </outline>
</glyph>
<glyph name="U" format="2">
  <advance width="398"/>
  <unicode hex="0055"/>
  <anchor x="199" y="0" name="bottom"/>
  <anchor x="343" y="10" name="ogonek"/>
  <anchor x="199" y="688" name="top"/>
  <anchor x="359" y="688" name="topright"/>
  <outline>
    <contour>
      <point x="199" y="-8" type="curve" smooth="yes"/>
      <point x="313" y="-8"/>
      <point x="341" y="38"/>
      <point x="341" y="216" type="curve" smooth="yes"/>
      <point x="341" y="688" type="line"/>
      <point x="259" y="688" type="line"/>
      <point x="259" y="187" type="line" smooth="yes"/>
      <point x="259" y="78"/>
      <point x="254" y="68"/>
      <point x="199" y="68" type="curve" smooth="yes"/>
      <point x="144" y="68"/>
      <point x="139" y="78"/>
      <point x="139" y="187" type="curve" smooth="yes"/>
      <point x="139" y="688" type="line"/>
      <point x="57" y="688" type="line"/>
      <point x="57" y="216" type="line" smooth="yes"/>
      <point x="57" y="38"/>
      <point x="85" y="-8"/>
    </contour>
  </outline>
</glyph>
<glyph name="V" format="2">
  <advance width="296"/>
  <unicode hex="0056"/>
  <outline>
    <contour>
      <point x="86" y="0" type="line"/>
      <point x="210" y="0" type="line"/>
      <point x="290" y="688" type="line"/>
      <point x="207" y="688" type="line"/>
      <point x="148" y="100" type="line"/>
      <point x="89" y="688" type="line"/>
      <point x="6" y="688" type="line"/>
    </contour>
  </outline>
</glyph>
<glyph name="W" format="2">
  <advance width="428"/>
  <unicode hex="0057"/>
  <outline>
    <contour>
      <point x="68" y="0" type="line"/>
      <point x="187" y="0" type="line"/>
      <point x="214" y="555" type="line"/>
      <point x="241" y="0" type="line"/>
      <point x="360" y="0" type="line"/>
      <point x="404" y="688" type="line"/>
      <point x="321" y="688" type="line"/>
      <point x="298" y="93" type="line"/>
      <point x="268" y="688" type="line"/>
      <point x="160" y="688" type="line"/>
      <point x="130" y="93" type="line"/>
      <point x="107" y="688" type="line"/>
      <point x="24" y="688" type="line"/>
    </contour>
  </outline>
</glyph>
<glyph name="X" format="2">
  <advance width="347"/>
  <unicode hex="0058"/>
  <anchor x="177" y="0" name="bottom"/>
  <anchor x="177" y="510" name="top"/>
  <outline>
    <contour>
      <point x="253" y="0" type="line"/>
      <point x="335" y="0" type="line"/>
      <point x="99" y="688" type="line"/>
      <point x="17" y="688" type="line"/>
    </contour>
    <contour>
      <point x="12" y="0" type="line"/>
      <point x="94" y="0" type="line"/>
      <point x="330" y="688" type="line"/>
      <point x="248" y="688" type="line"/>
    </contour>
  </outline>
</glyph>
<glyph name="Y" format="2">
  <advance width="292"/>
  <unicode hex="0059"/>
  <anchor x="146" y="0" name="bottom"/>
  <anchor x="146" y="688" name="top"/>
  <anchor x="-1" y="688" name="topleft"/>
  <outline>
    <contour>
      <point x="105" y="0" type="line"/>
      <point x="187" y="0" type="line"/>
      <point x="187" y="289" type="line"/>
      <point x="174" y="197" type="line"/>
      <point x="286" y="688" type="line"/>
      <point x="196" y="688" type="line"/>
      <point x="146" y="328" type="line"/>
      <point x="96" y="688" type="line"/>
      <point x="6" y="688" type="line"/>
      <point x="118" y="197" type="line"/>
      <point x="105" y="289" type="line"/>
    </contour>
  </outline>
</glyph>
<glyph name="Z" format="2">
  <advance width="327"/>
  <unicode hex="005A"/>
  <anchor x="173" y="0" name="bottom"/>
  <anchor x="173" y="344" name="center"/>
  <anchor x="173" y="688" name="top"/>
  <outline>
    <contour>
      <point x="30" y="0" type="line"/>
      <point x="297" y="0" type="line"/>
      <point x="297" y="74" type="line"/>
      <point x="115" y="74" type="line"/>
      <point x="296" y="622" type="line"/>
      <point x="296" y="688" type="line"/>
      <point x="34" y="688" type="line"/>
      <point x="34" y="614" type="line"/>
      <point x="211" y="614" type="line"/>
      <point x="30" y="66" type="line"/>
    </contour>
  </outline>
</glyph>
<glyph name="asciicircum" format="2">
  <advance width="456.41304"/>
  <unicode hex="005E"/>
  <outline>
    <contour>
      <point x="49.891" y="444" type="line"/>
      <point x="116.783" y="444" type="line"/>
      <point x="228.478" y="692.848" type="line"/>
      <point x="339.63" y="444" type="line"/>
      <point x="405.978" y="444" type="line"/>
      <point x="266.435" y="749" type="line"/>
      <point x="189.978" y="749" type="line"/>
    </contour>
  </outline>
</glyph>
<glyph name="a" format="2">
  <advance width="342"/>
  <unicode hex="0061"/>
  <anchor x="178" y="0" name="bottom"/>
  <anchor x="412" y="10" name="ogonek"/>
  <anchor x="178" y="510" name="top"/>
  <outline>
    <contour>
      <point x="126" y="-8" type="curve" smooth="yes"/>
      <point x="170" y="-8"/>
      <point x="194" y="9"/>
      <point x="205" y="46" type="curve"/>
      <point x="207" y="46" type="line"/>
      <point x="215" y="0" type="line"/>
      <point x="285" y="0" type="line"/>
      <point x="285" y="315" type="line" smooth="yes"/>
      <point x="285" y="479"/>
      <point x="261" y="518"/>
      <point x="151" y="518" type="curve" smooth="yes"/>
      <point x="112" y="518"/>
      <point x="84" y="515"/>
      <point x="59" y="507" type="curve"/>
      <point x="59" y="439" type="line"/>
      <point x="83" y="445"/>
      <point x="109" y="448"/>
      <point x="150" y="448" type="curve" smooth="yes"/>
      <point x="200" y="448"/>
      <point x="203" y="444"/>
      <point x="203" y="335" type="curve" smooth="yes"/>
      <point x="203" y="241" type="line" smooth="yes"/>
      <point x="203" y="95"/>
      <point x="194" y="62"/>
      <point x="156" y="62" type="curve" smooth="yes"/>
      <point x="125" y="62"/>
      <point x="120" y="75"/>
      <point x="120" y="149" type="curve" smooth="yes"/>
      <point x="120" y="221"/>
      <point x="129" y="235"/>
      <point x="173" y="235" type="curve" smooth="yes"/>
      <point x="217" y="235" type="line"/>
      <point x="217" y="305" type="line"/>
      <point x="161" y="305" type="line" smooth="yes"/>
      <point x="70" y="305"/>
      <point x="38" y="263"/>
      <point x="38" y="143" type="curve" smooth="yes"/>
      <point x="38" y="34"/>
      <point x="63" y="-8"/>
    </contour>
  </outline>
</glyph>
<glyph name="b" format="2">
  <advance width="340"/>
  <unicode hex="0062"/>
  <anchor x="270" y="0" name="bottom"/>
  <anchor x="115" y="594" name="center"/>
  <anchor x="270" y="510" name="top"/>
  <outline>
    <contour>
      <point x="211" y="-8" type="curve" smooth="yes"/>
      <point x="286" y="-8"/>
      <point x="298" y="31"/>
      <point x="298" y="251" type="curve" smooth="yes"/>
      <point x="298" y="259" type="line" smooth="yes"/>
      <point x="298" y="479"/>
      <point x="286" y="518"/>
      <point x="211" y="518" type="curve" smooth="yes"/>
      <point x="175" y="518"/>
      <point x="155" y="505"/>
      <point x="146" y="474" type="curve"/>
      <point x="142" y="474" type="line"/>
      <point x="142" y="743" type="line"/>
      <point x="60" y="743" type="line"/>
      <point x="60" y="0" type="line"/>
      <point x="134" y="0" type="line"/>
      <point x="142" y="36" type="line"/>
      <point x="146" y="36" type="line"/>
      <point x="155" y="5"/>
      <point x="175" y="-8"/>
    </contour>
    <contour>
      <point x="179" y="62" type="curve" smooth="yes"/>
      <point x="148" y="62"/>
      <point x="142" y="95"/>
      <point x="142" y="244" type="curve" smooth="yes"/>
      <point x="142" y="266" type="line" smooth="yes"/>
      <point x="142" y="415"/>
      <point x="148" y="448"/>
      <point x="179" y="448" type="curve" smooth="yes"/>
      <point x="213" y="448"/>
      <point x="216" y="437"/>
      <point x="216" y="279" type="curve" smooth="yes"/>
      <point x="216" y="231" type="line" smooth="yes"/>
      <point x="216" y="73"/>
      <point x="213" y="62"/>
    </contour>
  </outline>
</glyph>
<glyph name="c" format="2">
  <advance width="267"/>
  <unicode hex="0063"/>
  <anchor x="135" y="0" name="bottom"/>
  <anchor x="135" y="510" name="top"/>
  <outline>
    <contour>
      <point x="181" y="-8" type="curve" smooth="yes"/>
      <point x="203" y="-8"/>
      <point x="227" y="-4"/>
      <point x="242" y="2" type="curve"/>
      <point x="242" y="70" type="line"/>
      <point x="226" y="65"/>
      <point x="199" y="62"/>
      <point x="176" y="62" type="curve" smooth="yes"/>
      <point x="128" y="62"/>
      <point x="124" y="75"/>
      <point x="124" y="231" type="curve" smooth="yes"/>
      <point x="124" y="279" type="line" smooth="yes"/>
      <point x="124" y="436"/>
      <point x="128" y="448"/>
      <point x="176" y="448" type="curve" smooth="yes"/>
      <point x="197" y="448"/>
      <point x="222" y="445"/>
      <point x="237" y="440" type="curve"/>
      <point x="237" y="508" type="line"/>
      <point x="223" y="514"/>
      <point x="201" y="518"/>
      <point x="181" y="518" type="curve" smooth="yes"/>
      <point x="63" y="518"/>
      <point x="42" y="479"/>
      <point x="42" y="259" type="curve" smooth="yes"/>
      <point x="42" y="251" type="line" smooth="yes"/>
      <point x="42" y="31"/>
      <point x="63" y="-8"/>
    </contour>
  </outline>
</glyph>
<glyph name="e" format="2">
  <advance width="323"/>
  <unicode hex="0065"/>
  <anchor x="162" y="0" name="bottom"/>
  <anchor x="280" y="10" name="ogonek"/>
  <anchor x="162" y="510" name="top"/>
  <outline>
    <contour>
      <point x="166" y="-8" type="curve" smooth="yes"/>
      <point x="207" y="-8"/>
      <point x="254" y="-2"/>
      <point x="279" y="7" type="curve"/>
      <point x="279" y="75" type="line"/>
      <point x="256" y="68"/>
      <point x="215" y="62"/>
      <point x="185" y="62" type="curve" smooth="yes"/>
      <point x="128" y="62"/>
      <point x="124" y="74"/>
      <point x="124" y="231" type="curve" smooth="yes"/>
      <point x="124" y="279" type="line" smooth="yes"/>
      <point x="124" y="436"/>
      <point x="127" y="448"/>
      <point x="167" y="448" type="curve" smooth="yes"/>
      <point x="206" y="448"/>
      <point x="209" y="435"/>
      <point x="209" y="279" type="curve" smooth="yes"/>
      <point x="209" y="255" type="line"/>
      <point x="246" y="286" type="line"/>
      <point x="84" y="286" type="line"/>
      <point x="84" y="216" type="line"/>
      <point x="285" y="216" type="line"/>
      <point x="285" y="259" type="line" smooth="yes"/>
      <point x="285" y="479"/>
      <point x="267" y="518"/>
      <point x="166" y="518" type="curve" smooth="yes"/>
      <point x="61" y="518"/>
      <point x="42" y="478"/>
      <point x="42" y="259" type="curve" smooth="yes"/>
      <point x="42" y="251" type="line" smooth="yes"/>
      <point x="42" y="32"/>
      <point x="61" y="-8"/>
    </contour>
  </outline>
</glyph>
<glyph name="g" format="2">
  <advance width="340"/>
  <unicode hex="0067"/>
  <anchor x="-156" y="-200" name="bottom"/>
  <anchor x="225" y="-84" name="center"/>
  <anchor x="-156" y="510" name="top"/>
  <outline>
    <contour>
      <point x="146" y="-208" type="curve" smooth="yes"/>
      <point x="256" y="-208"/>
      <point x="280" y="-169"/>
      <point x="280" y="-5" type="curve" smooth="yes"/>
      <point x="280" y="510" type="line"/>
      <point x="206" y="510" type="line"/>
      <point x="198" y="474" type="line"/>
      <point x="194" y="474" type="line"/>
      <point x="185" y="505"/>
      <point x="165" y="518"/>
      <point x="129" y="518" type="curve" smooth="yes"/>
      <point x="56" y="518"/>
      <point x="42" y="472"/>
      <point x="42" y="259" type="curve" smooth="yes"/>
      <point x="42" y="251" type="line" smooth="yes"/>
      <point x="42" y="31"/>
      <point x="54" y="-8"/>
      <point x="129" y="-8" type="curve" smooth="yes"/>
      <point x="165" y="-8"/>
      <point x="185" y="5"/>
      <point x="194" y="36" type="curve"/>
      <point x="198" y="36" type="line"/>
      <point x="198" y="-25" type="line" smooth="yes"/>
      <point x="198" y="-134"/>
      <point x="195" y="-138"/>
      <point x="145" y="-138" type="curve" smooth="yes"/>
      <point x="104" y="-138"/>
      <point x="78" y="-135"/>
      <point x="54" y="-129" type="curve"/>
      <point x="54" y="-197" type="line"/>
      <point x="79" y="-205"/>
      <point x="107" y="-208"/>
    </contour>
    <contour>
      <point x="161" y="62" type="curve" smooth="yes"/>
      <point x="127" y="62"/>
      <point x="124" y="73"/>
      <point x="124" y="231" type="curve" smooth="yes"/>
      <point x="124" y="279" type="line" smooth="yes"/>
      <point x="124" y="437"/>
      <point x="127" y="448"/>
      <point x="161" y="448" type="curve" smooth="yes"/>
      <point x="192" y="448"/>
      <point x="198" y="415"/>
      <point x="198" y="266" type="curve" smooth="yes"/>
      <point x="198" y="244" type="line" smooth="yes"/>
      <point x="198" y="95"/>
      <point x="192" y="62"/>
    </contour>
  </outline>
</glyph>
<glyph name="h" format="2">
  <advance width="351"/>
  <unicode hex="0068"/>
  <anchor x="166" y="0" name="bottom"/>
  <anchor x="166" y="510" name="top"/>
  <outline>
    <contour>
      <point x="60" y="0" type="line"/>
      <point x="142" y="0" type="line"/>
      <point x="142" y="376" type="line" smooth="yes"/>
      <point x="142" y="430"/>
      <point x="152" y="448"/>
      <point x="182" y="448" type="curve" smooth="yes"/>
      <point x="207" y="448"/>
      <point x="212" y="440"/>
      <point x="212" y="386" type="curve" smooth="yes"/>
      <point x="212" y="0" type="line"/>
      <point x="294" y="0" type="line"/>
      <point x="294" y="398" type="line" smooth="yes"/>
      <point x="294" y="484"/>
      <point x="273" y="518"/>
      <point x="219" y="518" type="curve" smooth="yes"/>
      <point x="176" y="518"/>
      <point x="152" y="501"/>
      <point x="142" y="464" type="curve"/>
      <point x="142" y="743" type="line"/>
      <point x="60" y="743" type="line"/>
    </contour>
  </outline>
</glyph>
<glyph name="i" format="2">
  <advance width="202"/>
  <unicode hex="0069"/>
  <anchor x="81" y="0" name="bottom"/>
  <anchor x="142" y="0" name="ogonek"/>
  <anchor x="101" y="716" name="top"/>
  <outline>
    <contour>
      <point x="60" y="0" type="line"/>
      <point x="142" y="0" type="line"/>
      <point x="142" y="510" type="line"/>
      <point x="60" y="510" type="line"/>
    </contour>
    <contour>
      <point x="57" y="628" type="line"/>
      <point x="145" y="628" type="line"/>
      <point x="145" y="716" type="line"/>
      <point x="57" y="716" type="line"/>
    </contour>
  </outline>
</glyph>
<glyph name="k" format="2">
  <advance width="332"/>
  <unicode hex="006B"/>
  <anchor x="272" y="0" name="bottom"/>
  <anchor x="272" y="510" name="top"/>
  <outline>
    <contour>
      <point x="142" y="225" type="line"/>
      <point x="175" y="225" type="line"/>
      <point x="239" y="0" type="line"/>
      <point x="322" y="0" type="line"/>
      <point x="248" y="260" type="line"/>
      <point x="323" y="510" type="line"/>
      <point x="239" y="510" type="line"/>
      <point x="175" y="295" type="line"/>
      <point x="142" y="295" type="line"/>
    </contour>
    <contour>
      <point x="60" y="0" type="line"/>
      <point x="142" y="0" type="line"/>
      <point x="142" y="743" type="line"/>
      <point x="60" y="743" type="line"/>
    </contour>
  </outline>
</glyph>
<glyph name="l" format="2">
  <advance width="202"/>
  <unicode hex="006C"/>
  <anchor x="101" y="0" name="bottom"/>
  <anchor x="101" y="372" name="center"/>
  <anchor x="101" y="743" name="top"/>
  <anchor x="142" y="743" name="topright"/>
  <outline>
    <contour>
      <point x="60" y="0" type="line"/>
      <point x="142" y="0" type="line"/>
      <point x="142" y="743" type="line"/>
      <point x="60" y="743" type="line"/>
    </contour>
  </outline>
</glyph>
<glyph name="m" format="2">
  <advance width="503"/>
  <unicode hex="006D"/>
  <anchor x="166" y="0" name="bottom"/>
  <anchor x="166" y="510" name="top"/>
  <outline>
    <contour>
      <point x="60" y="0" type="line"/>
      <point x="142" y="0" type="line"/>
      <point x="142" y="386" type="line" smooth="yes"/>
      <point x="142" y="437"/>
      <point x="149" y="448"/>
      <point x="182" y="448" type="curve" smooth="yes"/>
      <point x="207" y="448"/>
      <point x="212" y="440"/>
      <point x="212" y="396" type="curve" smooth="yes"/>
      <point x="212" y="0" type="line"/>
      <point x="294" y="0" type="line"/>
      <point x="294" y="386" type="line" smooth="yes"/>
      <point x="294" y="437"/>
      <point x="301" y="448"/>
      <point x="334" y="448" type="curve" smooth="yes"/>
      <point x="359" y="448"/>
      <point x="364" y="440"/>
      <point x="364" y="396" type="curve" smooth="yes"/>
      <point x="364" y="0" type="line"/>
      <point x="446" y="0" type="line"/>
      <point x="446" y="409" type="line" smooth="yes"/>
      <point x="446" y="492"/>
      <point x="428" y="518"/>
      <point x="370" y="518" type="curve" smooth="yes"/>
      <point x="327" y="518"/>
      <point x="303" y="502"/>
      <point x="290" y="469" type="curve"/>
      <point x="286" y="469" type="line"/>
      <point x="277" y="504"/>
      <point x="257" y="518"/>
      <point x="218" y="518" type="curve" smooth="yes"/>
      <point x="177" y="518"/>
      <point x="153" y="503"/>
      <point x="143" y="469" type="curve"/>
      <point x="139" y="469" type="line"/>
      <point x="131" y="510" type="line"/>
      <point x="60" y="510" type="line"/>
    </contour>
  </outline>
</glyph>
<glyph name="n" format="2">
  <advance width="351"/>
  <unicode hex="006E"/>
  <anchor x="166" y="0" name="bottom"/>
  <anchor x="166" y="510" name="top"/>
  <outline>
    <contour>
      <point x="60" y="0" type="line"/>
      <point x="142" y="0" type="line"/>
      <point x="142" y="376" type="line" smooth="yes"/>
      <point x="142" y="430"/>
      <point x="152" y="448"/>
      <point x="182" y="448" type="curve" smooth="yes"/>
      <point x="207" y="448"/>
      <point x="212" y="440"/>
      <point x="212" y="386" type="curve" smooth="yes"/>
      <point x="212" y="0" type="line"/>
      <point x="294" y="0" type="line"/>
      <point x="294" y="398" type="line" smooth="yes"/>
      <point x="294" y="484"/>
      <point x="273" y="518"/>
      <point x="219" y="518" type="curve" smooth="yes"/>
      <point x="175" y="518"/>
      <point x="150" y="501"/>
      <point x="140" y="464" type="curve"/>
      <point x="138" y="464" type="line"/>
      <point x="130" y="510" type="line"/>
      <point x="60" y="510" type="line"/>
    </contour>
  </outline>
</glyph>
<glyph name="o" format="2">
  <advance width="322"/>
  <unicode hex="006F"/>
  <anchor x="161" y="0" name="bottom"/>
  <anchor x="161" y="255" name="center"/>
  <anchor x="304" y="10" name="ogonek"/>
  <anchor x="161" y="510" name="top"/>
  <anchor x="320" y="510" name="topright"/>
  <outline>
    <contour>
      <point x="161" y="-8" type="curve" smooth="yes"/>
      <point x="263" y="-8"/>
      <point x="280" y="31"/>
      <point x="280" y="251" type="curve" smooth="yes"/>
      <point x="280" y="259" type="line" smooth="yes"/>
      <point x="280" y="479"/>
      <point x="263" y="518"/>
      <point x="161" y="518" type="curve" smooth="yes"/>
      <point x="59" y="518"/>
      <point x="42" y="479"/>
      <point x="42" y="259" type="curve" smooth="yes"/>
      <point x="42" y="251" type="line" smooth="yes"/>
      <point x="42" y="31"/>
      <point x="59" y="-8"/>
    </contour>
    <contour>
      <point x="161" y="62" type="curve" smooth="yes"/>
      <point x="127" y="62"/>
      <point x="124" y="73"/>
      <point x="124" y="231" type="curve" smooth="yes"/>
      <point x="124" y="279" type="line" smooth="yes"/>
      <point x="124" y="437"/>
      <point x="127" y="448"/>
      <point x="161" y="448" type="curve" smooth="yes"/>
      <point x="195" y="448"/>
      <point x="198" y="437"/>
      <point x="198" y="279" type="curve" smooth="yes"/>
      <point x="198" y="231" type="line" smooth="yes"/>
      <point x="198" y="73"/>
      <point x="195" y="62"/>
    </contour>
  </outline>
</glyph>
<glyph name="p" format="2">
  <advance width="340"/>
  <unicode hex="0070"/>
  <anchor x="108" y="0" name="bottom"/>
  <anchor x="115" y="-84" name="center"/>
  <anchor x="108" y="510" name="top"/>
  <outline>
    <contour>
      <point x="60" y="-233" type="line"/>
      <point x="142" y="-233" type="line"/>
      <point x="142" y="36" type="line"/>
      <point x="146" y="36" type="line"/>
      <point x="155" y="5"/>
      <point x="175" y="-8"/>
      <point x="211" y="-8" type="curve" smooth="yes"/>
      <point x="286" y="-8"/>
      <point x="298" y="31"/>
      <point x="298" y="251" type="curve" smooth="yes"/>
      <point x="298" y="259" type="line" smooth="yes"/>
      <point x="298" y="479"/>
      <point x="286" y="518"/>
      <point x="211" y="518" type="curve" smooth="yes"/>
      <point x="175" y="518"/>
      <point x="155" y="505"/>
      <point x="146" y="474" type="curve"/>
      <point x="142" y="474" type="line"/>
      <point x="134" y="510" type="line"/>
      <point x="60" y="510" type="line"/>
    </contour>
    <contour>
      <point x="179" y="62" type="curve" smooth="yes"/>
      <point x="148" y="62"/>
      <point x="142" y="95"/>
      <point x="142" y="244" type="curve" smooth="yes"/>
      <point x="142" y="266" type="line" smooth="yes"/>
      <point x="142" y="415"/>
      <point x="148" y="448"/>
      <point x="179" y="448" type="curve" smooth="yes"/>
      <point x="213" y="448"/>
      <point x="216" y="437"/>
      <point x="216" y="279" type="curve" smooth="yes"/>
      <point x="216" y="231" type="line" smooth="yes"/>
      <point x="216" y="73"/>
      <point x="213" y="62"/>
    </contour>
  </outline>
</glyph>
<glyph name="q" format="2">
  <advance width="340"/>
  <unicode hex="0071"/>
  <anchor x="310" y="0" name="bottom"/>
  <anchor x="225" y="-84" name="center"/>
  <anchor x="310" y="510" name="top"/>
  <outline>
    <contour>
      <point x="198" y="-233" type="line"/>
      <point x="280" y="-233" type="line"/>
      <point x="280" y="510" type="line"/>
      <point x="206" y="510" type="line"/>
      <point x="198" y="474" type="line"/>
      <point x="194" y="474" type="line"/>
      <point x="185" y="505"/>
      <point x="165" y="518"/>
      <point x="129" y="518" type="curve" smooth="yes"/>
      <point x="54" y="518"/>
      <point x="42" y="479"/>
      <point x="42" y="259" type="curve" smooth="yes"/>
      <point x="42" y="251" type="line" smooth="yes"/>
      <point x="42" y="31"/>
      <point x="54" y="-8"/>
      <point x="129" y="-8" type="curve" smooth="yes"/>
      <point x="165" y="-8"/>
      <point x="185" y="5"/>
      <point x="194" y="36" type="curve"/>
      <point x="198" y="36" type="line"/>
    </contour>
    <contour>
      <point x="161" y="62" type="curve" smooth="yes"/>
      <point x="127" y="62"/>
      <point x="124" y="73"/>
      <point x="124" y="231" type="curve" smooth="yes"/>
      <point x="124" y="279" type="line" smooth="yes"/>
      <point x="124" y="437"/>
      <point x="127" y="448"/>
      <point x="161" y="448" type="curve" smooth="yes"/>
      <point x="192" y="448"/>
      <point x="198" y="415"/>
      <point x="198" y="266" type="curve" smooth="yes"/>
      <point x="198" y="244" type="line" smooth="yes"/>
      <point x="198" y="95"/>
      <point x="192" y="62"/>
    </contour>
  </outline>
</glyph>
<glyph name="r" format="2">
  <advance width="235"/>
  <unicode hex="0072"/>
  <anchor x="125" y="0" name="bottom"/>
  <anchor x="125" y="510" name="top"/>
  <outline>
    <contour>
      <point x="60" y="0" type="line"/>
      <point x="142" y="0" type="line"/>
      <point x="142" y="386" type="line" smooth="yes"/>
      <point x="142" y="436"/>
      <point x="154" y="448"/>
      <point x="203" y="448" type="curve" smooth="yes"/>
      <point x="218" y="448" type="line"/>
      <point x="218" y="518" type="line"/>
      <point x="176" y="518"/>
      <point x="153" y="503"/>
      <point x="143" y="469" type="curve"/>
      <point x="139" y="469" type="line"/>
      <point x="131" y="510" type="line"/>
      <point x="60" y="510" type="line"/>
    </contour>
  </outline>
</glyph>
<glyph name="s" format="2">
  <advance width="314"/>
  <unicode hex="0073"/>
  <guideline x="44" y="-1" angle="90.7935" name=""/>
  <guideline x="253" y="511" angle="93.5264" name=""/>
  <anchor x="154" y="0" name="bottom"/>
  <anchor x="154" y="510" name="top"/>
  <outline>
    <contour>
      <point x="120" y="-8" type="curve" smooth="yes"/>
      <point x="238" y="-8"/>
      <point x="275" y="28"/>
      <point x="275" y="146" type="curve" smooth="yes"/>
      <point x="275" y="236"/>
      <point x="259" y="274"/>
      <point x="216" y="283" type="curve" smooth="yes"/>
      <point x="147" y="297" type="line" smooth="yes"/>
      <point x="125" y="302"/>
      <point x="121" y="313"/>
      <point x="121" y="367" type="curve" smooth="yes"/>
      <point x="121" y="434"/>
      <point x="131" y="448"/>
      <point x="178" y="448" type="curve" smooth="yes"/>
      <point x="202" y="448"/>
      <point x="231" y="446"/>
      <point x="253" y="443" type="curve"/>
      <point x="253" y="511" type="line"/>
      <point x="234" y="516"/>
      <point x="210" y="518"/>
      <point x="177" y="518" type="curve" smooth="yes"/>
      <point x="73" y="518"/>
      <point x="39" y="482"/>
      <point x="39" y="368" type="curve" smooth="yes"/>
      <point x="39" y="281"/>
      <point x="56" y="240"/>
      <point x="98" y="231" type="curve" smooth="yes"/>
      <point x="167" y="217" type="line" smooth="yes"/>
      <point x="190" y="212"/>
      <point x="193" y="204"/>
      <point x="193" y="146" type="curve" smooth="yes"/>
      <point x="193" y="75"/>
      <point x="182" y="62"/>
      <point x="119" y="62" type="curve" smooth="yes"/>
      <point x="103" y="62"/>
      <point x="81" y="63"/>
      <point x="44" y="67" type="curve"/>
      <point x="44" y="-1" type="line"/>
      <point x="60" y="-6"/>
      <point x="82" y="-8"/>
    </contour>
  </outline>
</glyph>
<glyph name="t" format="2">
  <advance width="252"/>
  <unicode hex="0074"/>
  <anchor x="132" y="0" name="bottom"/>
  <anchor x="132" y="743" name="top"/>
  <outline>
    <contour>
      <point x="75" y="0" type="line"/>
      <point x="157" y="0" type="line"/>
      <point x="157" y="688" type="line"/>
      <point x="75" y="688" type="line"/>
    </contour>
    <contour>
      <point x="12" y="440" type="line"/>
      <point x="92" y="440" type="line"/>
      <point x="92" y="510" type="line"/>
      <point x="12" y="510" type="line"/>
    </contour>
    <contour>
      <point x="141" y="440" type="line"/>
      <point x="249" y="440" type="line"/>
      <point x="249" y="510" type="line"/>
      <point x="141" y="510" type="line"/>
    </contour>
  </outline>
</glyph>
<glyph name="u" format="2">
  <advance width="351"/>
  <unicode hex="0075"/>
  <anchor x="176" y="0" name="bottom"/>
  <anchor x="316" y="10" name="ogonek"/>
  <anchor x="176" y="510" name="top"/>
  <anchor x="331" y="510" name="topright"/>
  <outline>
    <contour>
      <point x="291" y="510" type="line"/>
      <point x="209" y="510" type="line"/>
      <point x="209" y="134" type="line" smooth="yes"/>
      <point x="209" y="80"/>
      <point x="199" y="62"/>
      <point x="169" y="62" type="curve" smooth="yes"/>
      <point x="144" y="62"/>
      <point x="139" y="70"/>
      <point x="139" y="124" type="curve" smooth="yes"/>
      <point x="139" y="510" type="line"/>
      <point x="57" y="510" type="line"/>
      <point x="57" y="112" type="line" smooth="yes"/>
      <point x="57" y="26"/>
      <point x="78" y="-8"/>
      <point x="132" y="-8" type="curve" smooth="yes"/>
      <point x="176" y="-8"/>
      <point x="201" y="9"/>
      <point x="211" y="46" type="curve"/>
      <point x="213" y="46" type="line"/>
      <point x="221" y="0" type="line"/>
      <point x="291" y="0" type="line"/>
    </contour>
  </outline>
</glyph>
<glyph name="v" format="2">
  <advance width="298"/>
  <unicode hex="0076"/>
  <anchor x="148" y="0" name="bottom"/>
  <anchor x="148" y="510" name="top"/>
  <outline>
    <contour>
      <point x="94" y="0" type="line"/>
      <point x="204" y="0" type="line"/>
      <point x="283" y="510" type="line"/>
      <point x="202" y="510" type="line"/>
      <point x="151" y="90" type="line"/>
      <point x="147" y="90" type="line"/>
      <point x="96" y="510" type="line"/>
      <point x="15" y="510" type="line"/>
    </contour>
  </outline>
</glyph>
<glyph name="w" format="2">
  <advance width="398"/>
  <unicode hex="0077"/>
  <anchor x="350" y="0" name="bottom"/>
  <anchor x="350" y="510" name="top"/>
  <outline>
    <contour>
      <point x="54" y="0" type="line"/>
      <point x="169" y="0" type="line"/>
      <point x="199" y="387" type="line"/>
      <point x="229" y="0" type="line"/>
      <point x="344" y="0" type="line"/>
      <point x="383" y="510" type="line"/>
      <point x="299" y="510" type="line"/>
      <point x="288" y="80" type="line"/>
      <point x="284" y="80" type="line"/>
      <point x="247" y="510" type="line"/>
      <point x="151" y="510" type="line"/>
      <point x="114" y="80" type="line"/>
      <point x="110" y="80" type="line"/>
      <point x="99" y="510" type="line"/>
      <point x="15" y="510" type="line"/>
    </contour>
  </outline>
</glyph>
<glyph name="x" format="2">
  <advance width="293"/>
  <unicode hex="0078"/>
  <anchor x="150" y="0" name="bottom"/>
  <anchor x="150" y="510" name="top"/>
  <outline>
    <contour>
      <point x="196" y="0" type="line"/>
      <point x="281" y="0" type="line"/>
      <point x="97" y="510" type="line"/>
      <point x="12" y="510" type="line"/>
    </contour>
    <contour>
      <point x="12" y="0" type="line"/>
      <point x="97" y="0" type="line"/>
      <point x="281" y="510" type="line"/>
      <point x="196" y="510" type="line"/>
    </contour>
  </outline>
</glyph>
<glyph name="y" format="2">
  <advance width="351"/>
  <unicode hex="0079"/>
  <anchor x="175" y="0" name="bottom"/>
  <anchor x="175" y="510" name="top"/>
  <outline>
    <contour>
      <point x="185" y="-208" type="curve" smooth="yes"/>
      <point x="274" y="-208"/>
      <point x="291" y="-169"/>
      <point x="291" y="30" type="curve" smooth="yes"/>
      <point x="291" y="510" type="line"/>
      <point x="209" y="510" type="line"/>
      <point x="209" y="244" type="line" smooth="yes"/>
      <point x="209" y="95"/>
      <point x="204" y="62"/>
      <point x="169" y="62" type="curve" smooth="yes"/>
      <point x="141" y="62"/>
      <point x="139" y="83"/>
      <point x="139" y="203" type="curve" smooth="yes"/>
      <point x="139" y="510" type="line"/>
      <point x="57" y="510" type="line"/>
      <point x="57" y="251" type="line" smooth="yes"/>
      <point x="57" y="31"/>
      <point x="67" y="-8"/>
      <point x="142" y="-8" type="curve" smooth="yes"/>
      <point x="178" y="-8"/>
      <point x="196" y="5"/>
      <point x="205" y="36" type="curve"/>
      <point x="209" y="36" type="line"/>
      <point x="209" y="10" type="line" smooth="yes"/>
      <point x="209" y="-127"/>
      <point x="206" y="-138"/>
      <point x="156" y="-138" type="curve" smooth="yes"/>
      <point x="132" y="-138"/>
      <point x="104" y="-135"/>
      <point x="86" y="-130" type="curve"/>
      <point x="86" y="-198" type="line"/>
      <point x="108" y="-204"/>
      <point x="149" y="-208"/>
    </contour>
  </outline>
</glyph>
<glyph name="z" format="2">
  <advance width="258"/>
  <unicode hex="007A"/>
  <anchor x="49" y="0" name="bottom"/>
  <anchor x="43" y="255" name="center"/>
  <anchor x="49" y="510" name="top"/>
  <outline>
    <contour>
      <point x="15" y="0" type="line"/>
      <point x="243" y="0" type="line"/>
      <point x="243" y="70" type="line"/>
      <point x="100" y="70" type="line"/>
      <point x="100" y="74" type="line"/>
      <point x="241" y="447" type="line"/>
      <point x="241" y="510" type="line"/>
      <point x="27" y="510" type="line"/>
      <point x="27" y="440" type="line"/>
      <point x="156" y="440" type="line"/>
      <point x="156" y="436" type="line"/>
      <point x="15" y="63" type="line"/>
    </contour>
  </outline>
</glyph>
<glyph name="bar" format="2">
  <advance width="250"/>
  <unicode hex="007C"/>
  <outline>
    <contour>
      <point x="84" y="-161" type="line"/>
      <point x="166" y="-161" type="line"/>
      <point x="166" y="743" type="line"/>
      <point x="84" y="743" type="line"/>
    </contour>
  </outline>
</glyph>
<glyph name="logicalnot" format="2">
  <advance width="539"/>
  <unicode hex="00AC"/>
  <outline>
    <contour>
      <point x="402.935" y="53" type="line"/>
      <point x="469" y="53" type="line"/>
      <point x="469" y="288.304" type="line"/>
      <point x="70" y="288.304" type="line"/>
      <point x="70" y="220.609" type="line"/>
      <point x="402.935" y="220.609" type="line"/>
    </contour>
  </outline>
</glyph>
<glyph name="ordmasculine" format="2">
  <advance width="421.6087"/>
  <unicode hex="00BA"/>
  <outline>
    <contour>
      <point x="210.804" y="313.913" type="curve" smooth="yes"/>
      <point x="365.326" y="313.913"/>
      <point x="374.326" y="356.957"/>
      <point x="374.326" y="504" type="curve" smooth="yes"/>
      <point x="374.326" y="650.587"/>
      <point x="365.326" y="696"/>
      <point x="210.804" y="696" type="curve" smooth="yes"/>
      <point x="56.283" y="696"/>
      <point x="47.283" y="650.587"/>
      <point x="47.283" y="504" type="curve" smooth="yes"/>
      <point x="47.283" y="356.957"/>
      <point x="56.283" y="313.913"/>
    </contour>
    <contour>
      <point x="210.804" y="367.913" type="curve" smooth="yes"/>
      <point x="112.348" y="367.913"/>
      <point x="112.348" y="386.391"/>
      <point x="112.348" y="504" type="curve" smooth="yes"/>
      <point x="112.348" y="620.609"/>
      <point x="112.348" y="641.087"/>
      <point x="210.804" y="641.087" type="curve" smooth="yes"/>
      <point x="309.261" y="641.087"/>
      <point x="309.261" y="620.609"/>
      <point x="309.261" y="504" type="curve" smooth="yes"/>
      <point x="309.261" y="386.391"/>
      <point x="309.261" y="367.913"/>
    </contour>
  </outline>
</glyph>
<glyph name="questiondown" format="2">
  <advance width="437.95652"/>
  <unicode hex="00BF"/>
  <outline>
    <contour>
      <point x="265.652" y="-186" type="curve" smooth="yes"/>
      <point x="320.174" y="-186"/>
      <point x="399.609" y="-179.457"/>
      <point x="456.87" y="-170.37" type="curve"/>
      <point x="456.87" y="-100.326" type="line"/>
      <point x="403.022" y="-106.783"/>
      <point x="334.109" y="-111.783"/>
      <point x="294.022" y="-111.783" type="curve" smooth="yes"/>
      <point x="186.413" y="-111.783"/>
      <point x="148.935" y="-103.848"/>
      <point x="148.935" y="-7.848" type="curve" smooth="yes"/>
      <point x="148.935" y="74.391"/>
      <point x="160.761" y="87.783"/>
      <point x="237.37" y="113.261" type="curve" smooth="yes"/>
      <point x="268.261" y="123.891" type="line" smooth="yes"/>
      <point x="320.391" y="142.087"/>
      <point x="341.565" y="158.152"/>
      <point x="341.565" y="233.152" type="curve" smooth="yes"/>
      <point x="341.565" y="313.087" type="line"/>
      <point x="264.804" y="313.087" type="line"/>
      <point x="264.804" y="250.37" type="line" smooth="yes"/>
      <point x="264.804" y="194.022"/>
      <point x="260.717" y="193.196"/>
      <point x="194.63" y="170.283" type="curve" smooth="yes"/>
      <point x="147.239" y="153.543" type="line" smooth="yes"/>
      <point x="78.435" y="129.152"/>
      <point x="62.935" y="75.217"/>
      <point x="62.935" y="-11.239" type="curve" smooth="yes"/>
      <point x="62.935" y="-142.239"/>
      <point x="120.043" y="-186"/>
    </contour>
    <contour>
      <point x="255.543" y="412.391" type="line"/>
      <point x="350.283" y="412.391" type="line"/>
      <point x="350.283" y="510" type="line"/>
      <point x="255.543" y="510" type="line"/>
    </contour>
  </outline>
</glyph>
<glyph name="AE" format="2">
  <advance width="954.6087"/>
  <unicode hex="00C6"/>
  <anchor x="475.065" y="0" name="bottom"/>
  <anchor x="475.065" y="688" name="top"/>
  <outline>
    <contour>
      <point x="-7.065" y="0" type="line"/>
      <point x="79.848" y="0" type="line"/>
      <point x="171.109" y="188.304" type="line"/>
      <point x="480.239" y="188.304" type="line"/>
      <point x="530.304" y="0" type="line"/>
      <point x="898.152" y="0" type="line"/>
      <point x="898.152" y="74.217" type="line"/>
      <point x="601.239" y="74.217" type="line"/>
      <point x="536.413" y="310.348" type="line"/>
      <point x="851.152" y="310.348" type="line"/>
      <point x="851.152" y="384.565" type="line"/>
      <point x="518.261" y="384.565" type="line"/>
      <point x="455.435" y="613.783" type="line"/>
      <point x="898.152" y="613.783" type="line"/>
      <point x="898.152" y="688" type="line"/>
      <point x="327.913" y="688" type="line"/>
    </contour>
    <contour>
      <point x="205.413" y="262.522" type="line"/>
      <point x="368.348" y="599.5" type="line"/>
      <point x="373.348" y="599.5" type="line"/>
      <point x="462.174" y="262.522" type="line"/>
    </contour>
  </outline>
</glyph>
<glyph name="germandbls" format="2">
  <advance width="607.56522"/>
  <unicode hex="00DF"/>
  <outline>
    <contour>
      <point x="86.413" y="0" type="line"/>
      <point x="167.152" y="0" type="line"/>
      <point x="167.152" y="528.522" type="line" smooth="yes"/>
      <point x="167.152" y="660.457"/>
      <point x="211.565" y="681.043"/>
      <point x="309.679" y="681.043" type="curve" smooth="yes"/>
      <point x="422.217" y="681.043"/>
      <point x="451.609" y="657.377"/>
      <point x="451.609" y="568.195" type="curve" smooth="yes"/>
      <point x="451.609" y="493.853"/>
      <point x="418.288" y="468.689"/>
      <point x="319.13" y="468.689" type="curve" smooth="yes"/>
      <point x="287.913" y="468.689" type="line"/>
      <point x="287.913" y="399.732" type="line"/>
      <point x="319.13" y="399.732" type="line" smooth="yes"/>
      <point x="429.304" y="399.732"/>
      <point x="460.609" y="372.366"/>
      <point x="460.609" y="238.817" type="curve" smooth="yes"/>
      <point x="460.609" y="79.999"/>
      <point x="444.5" y="68.413"/>
      <point x="314.391" y="68.413" type="curve" smooth="yes"/>
      <point x="260.413" y="68.413" type="line"/>
      <point x="260.413" y="0" type="line"/>
      <point x="334.391" y="0" type="line" smooth="yes"/>
      <point x="512.717" y="0"/>
      <point x="542.348" y="65.987"/>
      <point x="542.348" y="241.489" type="curve" smooth="yes"/>
      <point x="542.348" y="372.43"/>
      <point x="499.348" y="421.715"/>
      <point x="417.348" y="435.754" type="curve"/>
      <point x="417.348" y="439.754" type="line"/>
      <point x="497.348" y="452.529"/>
      <point x="533.348" y="493.591"/>
      <point x="533.348" y="574.802" type="curve" smooth="yes"/>
      <point x="533.348" y="690.1"/>
      <point x="489.261" y="750"/>
      <point x="316" y="750" type="curve" smooth="yes"/>
      <point x="141.043" y="750"/>
      <point x="86.413" y="682.804"/>
      <point x="86.413" y="540.043" type="curve" smooth="yes"/>
    </contour>
  </outline>
</glyph>
<glyph name="idotless" format="2">
  <advance width="202"/>
  <unicode hex="0131"/>
  <anchor x="101" y="0" name="bottom"/>
  <anchor x="142" y="0" name="ogonek"/>
  <anchor x="101" y="510" name="top"/>
  <outline>
    <contour>
      <point x="60" y="0" type="line"/>
      <point x="142" y="0" type="line"/>
      <point x="142" y="510" type="line"/>
      <point x="60" y="510" type="line"/>
    </contour>
  </outline>
</glyph>
<glyph name="OE" format="2">
  <advance width="1044.73913"/>
  <unicode hex="0152"/>
  <anchor x="522.87" y="0" name="bottom"/>
  <anchor x="522.87" y="688" name="top"/>
  <outline>
    <contour>
      <point x="358.109" y="0" type="curve" smooth="yes"/>
      <point x="988.283" y="0" type="line"/>
      <point x="988.283" y="74.217" type="line"/>
      <point x="662.63" y="74.217" type="line" smooth="yes"/>
      <point x="637.609" y="74.217"/>
      <point x="609.696" y="71.674"/>
      <point x="590.174" y="68.043" type="curve"/>
      <point x="632.891" y="111.304"/>
      <point x="639.348" y="184.261"/>
      <point x="640.348" y="310.348" type="curve"/>
      <point x="941.283" y="310.348" type="line"/>
      <point x="941.283" y="384.565" type="line"/>
      <point x="640.348" y="384.565" type="line"/>
      <point x="639.348" y="505.196"/>
      <point x="631.348" y="577.239"/>
      <point x="590.174" y="619.957" type="curve"/>
      <point x="609.696" y="616.326"/>
      <point x="637.609" y="613.783"/>
      <point x="662.63" y="613.783" type="curve" smooth="yes"/>
      <point x="988.283" y="613.783" type="line"/>
      <point x="988.283" y="688" type="line"/>
      <point x="358.109" y="688" type="line" smooth="yes"/>
      <point x="90.239" y="688"/>
      <point x="76.413" y="632.609"/>
      <point x="76.413" y="344" type="curve" smooth="yes"/>
      <point x="76.413" y="55.391"/>
      <point x="90.239" y="0"/>
    </contour>
    <contour>
      <point x="358.109" y="74.217" type="curve" smooth="yes"/>
      <point x="174.804" y="74.217"/>
      <point x="162.413" y="79.674"/>
      <point x="162.413" y="344" type="curve" smooth="yes"/>
      <point x="162.413" y="608.326"/>
      <point x="174.804" y="613.783"/>
      <point x="358.109" y="613.783" type="curve" smooth="yes"/>
      <point x="541.413" y="613.783"/>
      <point x="554.348" y="608.326"/>
      <point x="554.348" y="344" type="curve" smooth="yes"/>
      <point x="554.348" y="79.674"/>
      <point x="541.413" y="74.217"/>
    </contour>
  </outline>
</glyph>
<glyph name="oe" format="2">
  <advance width="926.02174"/>
  <unicode hex="0153"/>
  <anchor x="473.783" y="0" name="bottom"/>
  <anchor x="473.783" y="510" name="top"/>
  <outline>
    <contour>
      <point x="288.37" y="-8" type="curve" smooth="yes"/>
      <point x="391.087" y="-8"/>
      <point x="444.174" y="6.739"/>
      <point x="472.152" y="55.087" type="curve"/>
      <point x="504.13" y="8.196"/>
      <point x="560.13" y="-8"/>
      <point x="661" y="-8" type="curve" smooth="yes"/>
      <point x="723.913" y="-8"/>
      <point x="799.087" y="-2.457"/>
      <point x="841.348" y="6.087" type="curve"/>
      <point x="841.348" y="71.696" type="line"/>
      <point x="794.804" y="65.326"/>
      <point x="726.522" y="60.413"/>
      <point x="678.5" y="60.413" type="curve" smooth="yes"/>
      <point x="524.63" y="60.413"/>
      <point x="513.152" y="89.37"/>
      <point x="513.152" y="227.783" type="curve"/>
      <point x="861.348" y="227.783" type="line"/>
      <point x="861.348" y="254.913" type="line" smooth="yes"/>
      <point x="861.348" y="446.413"/>
      <point x="851.978" y="518"/>
      <point x="656.935" y="518" type="curve" smooth="yes"/>
      <point x="556.217" y="518"/>
      <point x="502.217" y="499.435"/>
      <point x="472.239" y="455.739" type="curve"/>
      <point x="444.261" y="502.261"/>
      <point x="390.261" y="518"/>
      <point x="288.37" y="518" type="curve" smooth="yes"/>
      <point x="77.217" y="518"/>
      <point x="64.674" y="466.109"/>
      <point x="64.674" y="255.087" type="curve" smooth="yes"/>
      <point x="64.674" y="44.065"/>
      <point x="77.217" y="-8"/>
    </contour>
    <contour>
      <point x="288.37" y="60.957" type="curve" smooth="yes"/>
      <point x="146.413" y="60.957"/>
      <point x="146.413" y="87.261"/>
      <point x="146.413" y="255.087" type="curve" smooth="yes"/>
      <point x="146.413" y="422.913"/>
      <point x="146.413" y="449.043"/>
      <point x="288.37" y="449.043" type="curve" smooth="yes"/>
      <point x="430.326" y="449.043"/>
      <point x="430.326" y="422.913"/>
      <point x="430.326" y="255.087" type="curve" smooth="yes"/>
      <point x="430.326" y="87.261"/>
      <point x="430.326" y="60.957"/>
    </contour>
    <contour>
      <point x="782.87" y="268.326" type="line"/>
      <point x="802.043" y="286.413" type="line"/>
      <point x="513.152" y="286.413" type="line"/>
      <point x="513.696" y="424.848"/>
      <point x="528.435" y="449.587"/>
      <point x="654.478" y="449.587" type="curve" smooth="yes"/>
      <point x="754.391" y="449.587"/>
      <point x="782.87" y="433.304"/>
      <point x="782.87" y="296" type="curve" smooth="yes"/>
    </contour>
  </outline>
</glyph>
<glyph name="jdotless" format="2">
  <advance width="182"/>
  <unicode hex="0237"/>
  <anchor x="91" y="-200" name="bottom"/>
  <anchor x="91" y="510" name="top"/>
  <outline>
    <contour>
      <point x="132" y="510" type="line"/>
      <point x="50" y="510" type="line"/>
      <point x="50" y="-55" type="line" smooth="yes"/>
      <point x="50" y="-118"/>
      <point x="36" y="-130"/>
      <point x="-42" y="-130" type="curve"/>
      <point x="-42" y="-200" type="line"/>
      <point x="93" y="-200"/>
      <point x="132" y="-167"/>
      <point x="132" y="-48" type="curve" smooth="yes"/>
    </contour>
  </outline>
</glyph>
<glyph name="nhookleft" format="2">
  <advance width="598.56522"/>
  <unicode hex="0272"/>
  <outline>
    <contour>
      <point x="-9.065" y="-200" type="line"/>
      <point x="123.609" y="-200"/>
      <point x="167.609" y="-190.109"/>
      <point x="167.609" y="-62.783" type="curve" smooth="yes"/>
      <point x="167.609" y="263.457" type="line" smooth="yes"/>
      <point x="167.609" y="375.587"/>
      <point x="174.13" y="445.239"/>
      <point x="305.109" y="445.239" type="curve" smooth="yes"/>
      <point x="414.109" y="445.239"/>
      <point x="430.957" y="429.304"/>
      <point x="430.957" y="290.543" type="curve" smooth="yes"/>
      <point x="430.957" y="0" type="line"/>
      <point x="512.152" y="0" type="line"/>
      <point x="512.152" y="319.457" type="line" smooth="yes"/>
      <point x="512.152" y="455.848"/>
      <point x="488.239" y="518"/>
      <point x="338.196" y="518" type="curve" smooth="yes"/>
      <point x="234.109" y="518"/>
      <point x="190.13" y="484.87"/>
      <point x="169.239" y="436.783" type="curve"/>
      <point x="163.065" y="436.783" type="line"/>
      <point x="159.522" y="510" type="line"/>
      <point x="86.413" y="510" type="line"/>
      <point x="86.413" y="-80.935" type="line" smooth="yes"/>
      <point x="86.413" y="-123.761"/>
      <point x="79.043" y="-136.304"/>
      <point x="-9.065" y="-136.304" type="curve"/>
    </contour>
  </outline>
</glyph>
<glyph name="circumflex" format="2">
  <advance width="289.34783"/>
  <unicode hex="02C6"/>
  <outline>
    <contour>
      <point x="0" y="594.587" type="line"/>
      <point x="55.804" y="594.587" type="line"/>
      <point x="144.13" y="691.174" type="line"/>
      <point x="233" y="594.587" type="line"/>
      <point x="289.348" y="594.587" type="line"/>
      <point x="289.348" y="600.674" type="line"/>
      <point x="187.239" y="735.304" type="line"/>
      <point x="101.565" y="735.304" type="line"/>
      <point x="0" y="600.674" type="line"/>
    </contour>
  </outline>
</glyph>
<glyph name="acutecomb" format="2">
  <advance width="188.86956"/>
  <unicode hex="0301"/>
  <anchor x="76.196" y="510" name="_top"/>
  <anchor x="76.196" y="683" name="top"/>
  <outline>
    <contour>
      <point x="0" y="594.587" type="line"/>
      <point x="60.152" y="594.587" type="line"/>
      <point x="188.87" y="730.304" type="line"/>
      <point x="188.87" y="735.304" type="line"/>
      <point x="101.022" y="735.304" type="line"/>
      <point x="0" y="599.587" type="line"/>
    </contour>
  </outline>
</glyph>
<glyph name="circumflexcomb" format="2">
  <advance width="289.34783"/>
  <unicode hex="0302"/>
  <anchor x="144.674" y="510" name="_top"/>
  <anchor x="144.674" y="688" name="top"/>
  <outline>
    <contour>
      <point x="0" y="594.587" type="line"/>
      <point x="55.804" y="594.587" type="line"/>
      <point x="144.13" y="691.174" type="line"/>
      <point x="233" y="594.587" type="line"/>
      <point x="289.348" y="594.587" type="line"/>
      <point x="289.348" y="600.674" type="line"/>
      <point x="187.239" y="735.304" type="line"/>
      <point x="101.565" y="735.304" type="line"/>
      <point x="0" y="600.674" type="line"/>
    </contour>
  </outline>
</glyph>
<glyph name="dotaccentcomb" format="2">
  <advance width="128"/>
  <unicode hex="0307"/>
  <anchor x="64" y="510" name="_top"/>
  <anchor x="64" y="716" name="top"/>
  <outline>
    <contour>
      <point x="20" y="628" type="line"/>
      <point x="108" y="628" type="line"/>
      <point x="108" y="716" type="line"/>
      <point x="20" y="716" type="line"/>
    </contour>
  </outline>
</glyph>
<glyph name="dblgravecomb" format="2">
  <advance width="347.30435"/>
  <unicode hex="030F"/>
  <anchor x="212" y="510" name="_top"/>
  <anchor x="212" y="688" name="top"/>
  <outline>
    <contour>
      <point x="347.304" y="594.587" type="line"/>
      <point x="347.304" y="599.587" type="line"/>
      <point x="258.478" y="717.478" type="line"/>
      <point x="181.5" y="717.478" type="line"/>
      <point x="181.5" y="712.478" type="line"/>
      <point x="294.761" y="594.587" type="line"/>
    </contour>
    <contour>
      <point x="166.348" y="594.587" type="line"/>
      <point x="166.348" y="599.587" type="line"/>
      <point x="77.522" y="717.478" type="line"/>
      <point x="0" y="717.478" type="line"/>
      <point x="0" y="712.478" type="line"/>
      <point x="113.804" y="594.587" type="line"/>
    </contour>
  </outline>
</glyph>
<glyph name="downArrow" format="2">
  <advance width="395"/>
  <unicode hex="2193"/>
  <outline>
    <contour>
      <point x="198" y="-85" type="line"/>
      <point x="326.304" y="186.304" type="line"/>
      <point x="230.217" y="148.739" type="line"/>
      <point x="230.217" y="688" type="line"/>
      <point x="165.783" y="688" type="line"/>
      <point x="165.783" y="148.739" type="line"/>
      <point x="68.696" y="186.304" type="line"/>
    </contour>
  </outline>
</glyph>
<glyph name="approxequal" format="2">
  <advance width="497"/>
  <unicode hex="2248"/>
  <outline>
    <contour>
      <point x="67.217" y="286.587" type="curve"/>
      <point x="114.87" y="286.587" type="line"/>
      <point x="114.87" y="327.239"/>
      <point x="117.152" y="340.978"/>
      <point x="146.065" y="340.978" type="curve" smooth="yes"/>
      <point x="173.174" y="340.978"/>
      <point x="204.913" y="331.152"/>
      <point x="236.37" y="321.783" type="curve" smooth="yes"/>
      <point x="275.196" y="309.957"/>
      <point x="315.283" y="297.587"/>
      <point x="355.283" y="297.587" type="curve" smooth="yes"/>
      <point x="421.413" y="297.587"/>
      <point x="428.696" y="333.457"/>
      <point x="428.696" y="411.609" type="curve"/>
      <point x="381.587" y="411.609" type="line"/>
      <point x="381.587" y="370.957"/>
      <point x="379.304" y="357.217"/>
      <point x="350.391" y="357.217" type="curve" smooth="yes"/>
      <point x="323.283" y="357.217"/>
      <point x="291.543" y="367.043"/>
      <point x="260.543" y="376.413" type="curve" smooth="yes"/>
      <point x="221.261" y="388.239"/>
      <point x="181.174" y="400.609"/>
      <point x="141.174" y="400.609" type="curve" smooth="yes"/>
      <point x="74.5" y="400.609"/>
      <point x="67.217" y="364.739"/>
    </contour>
    <contour>
      <point x="67.217" y="97.674" type="curve"/>
      <point x="114.87" y="97.674" type="line"/>
      <point x="114.87" y="138.326"/>
      <point x="117.152" y="152.065"/>
      <point x="146.065" y="152.065" type="curve" smooth="yes"/>
      <point x="173.174" y="152.065"/>
      <point x="204.913" y="142.239"/>
      <point x="235.913" y="132.87" type="curve" smooth="yes"/>
      <point x="275.196" y="121.043"/>
      <point x="315.283" y="108.674"/>
      <point x="355.283" y="108.674" type="curve" smooth="yes"/>
      <point x="421.413" y="108.674"/>
      <point x="428.696" y="144.543"/>
      <point x="428.696" y="222.696" type="curve"/>
      <point x="381.587" y="222.696" type="line"/>
      <point x="381.587" y="182.043"/>
      <point x="379.304" y="168.304"/>
      <point x="350.391" y="168.304" type="curve" smooth="yes"/>
      <point x="323.283" y="168.304"/>
      <point x="291.543" y="178.13"/>
      <point x="260.543" y="187.5" type="curve" smooth="yes"/>
      <point x="221.261" y="199.326"/>
      <point x="181.174" y="211.696"/>
      <point x="141.174" y="211.696" type="curve" smooth="yes"/>
      <point x="74.5" y="211.696"/>
      <point x="67.217" y="175.826"/>
    </contour>
  </outline>
</glyph>
<glyph name="notequal" format="2">
  <advance width="540"/>
  <unicode hex="2260"/>
  <outline>
    <contour>
      <point x="117.5" y="0" type="line"/>
      <point x="177.413" y="0" type="line"/>
      <point x="233.261" y="119.609" type="line"/>
      <point x="470" y="119.609" type="line"/>
      <point x="470" y="185.848" type="line"/>
      <point x="264.022" y="185.848" type="line"/>
      <point x="326.261" y="319.609" type="line"/>
      <point x="470" y="319.609" type="line"/>
      <point x="470" y="385.848" type="line"/>
      <point x="357.565" y="385.848" type="line"/>
      <point x="415.413" y="510" type="line"/>
      <point x="355.5" y="510" type="line"/>
      <point x="297.652" y="385.848" type="line"/>
      <point x="70" y="385.848" type="line"/>
      <point x="70" y="319.609" type="line"/>
      <point x="266.348" y="319.609" type="line"/>
      <point x="204.109" y="185.848" type="line"/>
      <point x="70" y="185.848" type="line"/>
      <point x="70" y="119.609" type="line"/>
      <point x="173.348" y="119.609" type="line"/>
    </contour>
  </outline>
</glyph>
<glyph name="greaterequal" format="2">
  <advance width="541"/>
  <unicode hex="2265"/>
  <outline>
    <contour>
      <point x="70" y="174" type="line"/>
      <point x="470" y="342.413" type="line"/>
      <point x="470" y="421.043" type="line"/>
      <point x="70" y="590" type="line"/>
      <point x="70" y="519.848" type="line"/>
      <point x="404.065" y="382" type="line"/>
      <point x="70" y="243.609" type="line"/>
    </contour>
    <contour>
      <point x="70" y="0" type="line"/>
      <point x="470" y="0" type="line"/>
      <point x="470" y="66.239" type="line"/>
      <point x="70" y="66.239" type="line"/>
    </contour>
  </outline>
</glyph>
<glyph name="C.001" format="2">
  <advance width="315"/>
  <anchor x="146" y="0" name="bottom"/>
  <anchor x="146" y="688" name="top"/>
  <outline>
    <contour>
      <point x="190" y="-8" type="curve" smooth="yes"/>
      <point x="217" y="-8"/>
      <point x="249" y="-5"/>
      <point x="267" y="0" type="curve"/>
      <point x="267" y="73" type="line"/>
      <point x="248" y="69"/>
      <point x="217" y="66"/>
      <point x="190" y="66" type="curve" smooth="yes"/>
      <point x="121" y="66"/>
      <point x="117" y="82"/>
      <point x="117" y="310" type="curve" smooth="yes"/>
      <point x="117" y="378" type="line" smooth="yes"/>
      <point x="117" y="606"/>
      <point x="121" y="622"/>
      <point x="190" y="622" type="curve" smooth="yes"/>
      <point x="209" y="622"/>
      <point x="235" y="620"/>
      <point x="265" y="615" type="curve"/>
      <point x="265" y="686" type="line"/>
      <point x="247" y="692"/>
      <point x="216" y="696"/>
      <point x="190" y="696" type="curve" smooth="yes"/>
      <point x="54" y="696"/>
      <point x="35" y="642"/>
      <point x="35" y="349" type="curve" smooth="yes"/>
      <point x="35" y="339" type="line" smooth="yes"/>
      <point x="35" y="46"/>
      <point x="54" y="-8"/>
    </contour>
  </outline>
</glyph>
<glyph name="M.001" format="2">
  <advance width="432"/>
  <anchor x="216" y="0" name="bottom"/>
  <anchor x="216" y="688" name="top"/>
  <outline>
    <contour>
      <point x="50" y="0" type="line"/>
      <point x="132" y="0" type="line"/>
      <point x="132" y="568" type="line"/>
      <point x="136" y="568" type="line"/>
      <point x="182" y="0" type="line"/>
      <point x="249" y="0" type="line"/>
      <point x="296" y="568" type="line"/>
      <point x="300" y="568" type="line"/>
      <point x="300" y="0" type="line"/>
      <point x="382" y="0" type="line"/>
      <point x="382" y="688" type="line"/>
      <point x="259" y="688" type="line"/>
      <point x="218" y="170" type="line"/>
      <point x="214" y="170" type="line"/>
      <point x="173" y="688" type="line"/>
      <point x="50" y="688" type="line"/>
    </contour>
  </outline>
</glyph>
<glyph name="Y.001" format="2">
  <advance width="290"/>
  <anchor x="145" y="0" name="bottom"/>
  <anchor x="145" y="688" name="top"/>
  <anchor x="-2" y="688" name="topleft"/>
  <outline>
    <contour>
      <point x="104" y="0" type="line"/>
      <point x="186" y="0" type="line"/>
      <point x="186" y="319" type="line"/>
      <point x="170" y="197" type="line"/>
      <point x="285" y="688" type="line"/>
      <point x="200" y="688" type="line"/>
      <point x="147" y="348" type="line"/>
      <point x="143" y="348" type="line"/>
      <point x="90" y="688" type="line"/>
      <point x="5" y="688" type="line"/>
      <point x="120" y="197" type="line"/>
      <point x="104" y="319" type="line"/>
    </contour>
  </outline>
</glyph>
<glyph name="Z.001" format="2">
  <advance width="309"/>
  <anchor x="155" y="0" name="bottom"/>
  <anchor x="155" y="344" name="center"/>
  <anchor x="155" y="688" name="top"/>
  <outline>
    <contour>
      <point x="30" y="0" type="line"/>
      <point x="279" y="0" type="line"/>
      <point x="279" y="74" type="line"/>
      <point x="115" y="74" type="line"/>
      <point x="278" y="620" type="line"/>
      <point x="278" y="688" type="line"/>
      <point x="34" y="688" type="line"/>
      <point x="34" y="614" type="line"/>
      <point x="193" y="614" type="line"/>
      <point x="30" y="68" type="line"/>
    </contour>
  </outline>
</glyph>
<glyph name="_tail.Q" format="2">
  <advance width="137"/>
  <anchor x="61" y="10" name="_bottom"/>
  <outline>
    <contour>
      <point x="20" y="10" type="line"/>
      <point x="35" y="-146" type="line"/>
      <point x="117" y="-146" type="line"/>
      <point x="102" y="10" type="line"/>
    </contour>
  </outline>
</glyph>
<glyph name="a.001" format="2">
  <advance width="325"/>
  <anchor x="170" y="0" name="bottom"/>
  <anchor x="404" y="10" name="ogonek"/>
  <anchor x="170" y="510" name="top"/>
  <outline>
    <contour>
      <point x="127" y="-8" type="curve" smooth="yes"/>
      <point x="166" y="-8"/>
      <point x="188" y="9"/>
      <point x="197" y="46" type="curve"/>
      <point x="199" y="46" type="line"/>
      <point x="207" y="0" type="line"/>
      <point x="277" y="0" type="line"/>
      <point x="277" y="259" type="line" smooth="yes"/>
      <point x="277" y="479"/>
      <point x="259" y="518"/>
      <point x="153" y="518" type="curve" smooth="yes"/>
      <point x="120" y="518"/>
      <point x="86" y="513"/>
      <point x="46" y="503" type="curve"/>
      <point x="47" y="435" type="line"/>
      <point x="73" y="444"/>
      <point x="101" y="448"/>
      <point x="134" y="448" type="curve" smooth="yes"/>
      <point x="192" y="448"/>
      <point x="196" y="436"/>
      <point x="196" y="279" type="curve" smooth="yes"/>
      <point x="196" y="244" type="line" smooth="yes"/>
      <point x="196" y="102"/>
      <point x="186" y="62"/>
      <point x="148" y="62" type="curve" smooth="yes"/>
      <point x="118" y="62"/>
      <point x="112" y="79"/>
      <point x="112" y="149" type="curve" smooth="yes"/>
      <point x="112" y="219"/>
      <point x="119" y="235"/>
      <point x="148" y="235" type="curve" smooth="yes"/>
      <point x="233" y="235" type="line"/>
      <point x="233" y="305" type="line"/>
      <point x="136" y="305" type="line" smooth="yes"/>
      <point x="59" y="305"/>
      <point x="32" y="265"/>
      <point x="32" y="149" type="curve" smooth="yes"/>
      <point x="32" y="33"/>
      <point x="57" y="-8"/>
    </contour>
  </outline>
</glyph>
<glyph name="bar.ss02" format="2">
  <advance width="498"/>
  <outline>
    <contour>
      <point x="-1" y="0" type="line"/>
      <point x="499" y="0" type="line"/>
      <point x="499" y="696" type="line"/>
      <point x="-1" y="696" type="line"/>
    </contour>
  </outline>
</glyph>
<glyph name="c.001" format="2">
  <advance width="256"/>
  <anchor x="128" y="0" name="bottom"/>
  <anchor x="128" y="510" name="top"/>
  <outline>
    <contour>
      <point x="174" y="-8" type="curve" smooth="yes"/>
      <point x="196" y="-8"/>
      <point x="220" y="-4"/>
      <point x="235" y="2" type="curve"/>
      <point x="235" y="70" type="line"/>
      <point x="219" y="65"/>
      <point x="192" y="62"/>
      <point x="169" y="62" type="curve" smooth="yes"/>
      <point x="121" y="62"/>
      <point x="117" y="75"/>
      <point x="117" y="231" type="curve" smooth="yes"/>
      <point x="117" y="279" type="line" smooth="yes"/>
      <point x="117" y="436"/>
      <point x="121" y="448"/>
      <point x="169" y="448" type="curve" smooth="yes"/>
      <point x="190" y="448"/>
      <point x="215" y="445"/>
      <point x="230" y="440" type="curve"/>
      <point x="230" y="508" type="line"/>
      <point x="216" y="514"/>
      <point x="194" y="518"/>
      <point x="174" y="518" type="curve" smooth="yes"/>
      <point x="56" y="518"/>
      <point x="35" y="479"/>
      <point x="35" y="259" type="curve" smooth="yes"/>
      <point x="35" y="251" type="line" smooth="yes"/>
      <point x="35" y="31"/>
      <point x="56" y="-8"/>
    </contour>
  </outline>
</glyph>
<glyph name="cedillacomb.case" format="2">
  <advance width="123.5"/>
  <anchor x="90.196" y="0" name="_bottom"/>
  <anchor x="89.739" y="-190" name="bottom"/>
  <outline>
    <contour>
      <point x="0" y="-190" type="line"/>
      <point x="80.761" y="-190" type="line"/>
      <point x="123.5" y="13" type="line"/>
      <point x="123.5" y="18" type="line"/>
      <point x="68.152" y="18" type="line"/>
      <point x="0" y="-185" type="line"/>
    </contour>
  </outline>
</glyph>
<glyph name="e.001" format="2">
  <advance width="291"/>
  <anchor x="145" y="0" name="bottom"/>
  <anchor x="263" y="10" name="ogonek"/>
  <anchor x="145" y="510" name="top"/>
  <outline>
    <contour>
      <point x="149" y="-8" type="curve" smooth="yes"/>
      <point x="190" y="-8"/>
      <point x="237" y="-2"/>
      <point x="262" y="7" type="curve"/>
      <point x="262" y="75" type="line"/>
      <point x="239" y="68"/>
      <point x="198" y="62"/>
      <point x="168" y="62" type="curve" smooth="yes"/>
      <point x="111" y="62"/>
      <point x="107" y="74"/>
      <point x="107" y="231" type="curve" smooth="yes"/>
      <point x="107" y="279" type="line" smooth="yes"/>
      <point x="107" y="436"/>
      <point x="110" y="448"/>
      <point x="150" y="448" type="curve" smooth="yes"/>
      <point x="189" y="448"/>
      <point x="192" y="435"/>
      <point x="192" y="279" type="curve" smooth="yes"/>
      <point x="192" y="255" type="line"/>
      <point x="229" y="286" type="line"/>
      <point x="67" y="286" type="line"/>
      <point x="67" y="216" type="line"/>
      <point x="268" y="216" type="line"/>
      <point x="268" y="259" type="line" smooth="yes"/>
      <point x="268" y="479"/>
      <point x="250" y="518"/>
      <point x="149" y="518" type="curve" smooth="yes"/>
      <point x="44" y="518"/>
      <point x="25" y="478"/>
      <point x="25" y="259" type="curve" smooth="yes"/>
      <point x="25" y="251" type="line" smooth="yes"/>
      <point x="25" y="32"/>
      <point x="44" y="-8"/>
    </contour>
  </outline>
</glyph>
<glyph name="eight.dnom" format="2">
  <advance width="395.73913"/>
  <outline>
    <contour>
      <point x="197.37" y="-4" type="curve" smooth="yes"/>
      <point x="326.457" y="-4"/>
      <point x="353.087" y="30.63"/>
      <point x="353.087" y="100.543" type="curve" smooth="yes"/>
      <point x="353.087" y="164.457"/>
      <point x="328.63" y="181.543"/>
      <point x="280.717" y="191.543" type="curve"/>
      <point x="280.717" y="193.543" type="line"/>
      <point x="328.087" y="202.087"/>
      <point x="349.087" y="228.087"/>
      <point x="349.087" y="283.087" type="curve" smooth="yes"/>
      <point x="349.087" y="353"/>
      <point x="315" y="382.087"/>
      <point x="197.37" y="382.087" type="curve" smooth="yes"/>
      <point x="80.283" y="382.087"/>
      <point x="45.652" y="353"/>
      <point x="45.652" y="283.087" type="curve" smooth="yes"/>
      <point x="45.652" y="228.087"/>
      <point x="67.652" y="202.087"/>
      <point x="114.565" y="193.543" type="curve"/>
      <point x="114.565" y="191.543" type="line"/>
      <point x="67.652" y="181.543"/>
      <point x="42.652" y="164.457"/>
      <point x="42.652" y="100.543" type="curve" smooth="yes"/>
      <point x="42.652" y="30.63"/>
      <point x="68.826" y="-4"/>
    </contour>
    <contour>
      <point x="197.913" y="43.674" type="curve" smooth="yes"/>
      <point x="125.13" y="43.674"/>
      <point x="103.565" y="52.5"/>
      <point x="103.565" y="105.348" type="curve" smooth="yes"/>
      <point x="103.565" y="160.196"/>
      <point x="121.217" y="168.565"/>
      <point x="197.913" y="168.565" type="curve" smooth="yes"/>
      <point x="274.065" y="168.565"/>
      <point x="292.174" y="160.196"/>
      <point x="292.174" y="105.348" type="curve" smooth="yes"/>
      <point x="292.174" y="52.5"/>
      <point x="271.152" y="43.674"/>
    </contour>
    <contour>
      <point x="197.913" y="213.522" type="curve" smooth="yes"/>
      <point x="124.13" y="213.522"/>
      <point x="106.565" y="224.261"/>
      <point x="106.565" y="273.196" type="curve" smooth="yes"/>
      <point x="106.565" y="322.674"/>
      <point x="122.217" y="334.413"/>
      <point x="197.913" y="334.413" type="curve" smooth="yes"/>
      <point x="273.065" y="334.413"/>
      <point x="288.717" y="322.674"/>
      <point x="288.717" y="273.196" type="curve" smooth="yes"/>
      <point x="288.717" y="224.261"/>
      <point x="271.609" y="213.522"/>
    </contour>
  </outline>
</glyph>
<glyph name="f_f_i" format="2">
  <advance width="935.10869"/>
  <anchor x="311.703" y="0" name="caret_1"/>
  <anchor x="623.406" y="0" name="caret_2"/>
  <outline>
    <contour>
      <point x="129.848" y="0" type="line"/>
      <point x="211.043" y="0" type="line"/>
      <point x="211.043" y="441.043" type="line"/>
      <point x="438.674" y="441.043" type="line"/>
      <point x="438.674" y="0" type="line"/>
      <point x="519.87" y="0" type="line"/>
      <point x="519.87" y="441.043" type="line"/>
      <point x="651.522" y="441.043" type="line"/>
      <point x="651.522" y="510" type="line"/>
      <point x="519.87" y="510" type="line"/>
      <point x="519.87" y="604.913" type="line" smooth="yes"/>
      <point x="519.87" y="668.739"/>
      <point x="542.261" y="679.848"/>
      <point x="651.522" y="679.848" type="curve"/>
      <point x="651.522" y="742.457" type="line"/>
      <point x="494.87" y="742.457"/>
      <point x="438.674" y="733.174"/>
      <point x="438.674" y="590.761" type="curve" smooth="yes"/>
      <point x="438.674" y="510" type="line"/>
      <point x="211.043" y="510" type="line"/>
      <point x="211.043" y="604.913" type="line" smooth="yes"/>
      <point x="211.043" y="668.739"/>
      <point x="233.435" y="679.848"/>
      <point x="342.696" y="679.848" type="curve"/>
      <point x="342.696" y="742.457" type="line"/>
      <point x="186.043" y="742.457"/>
      <point x="129.848" y="733.174"/>
      <point x="129.848" y="590.761" type="curve" smooth="yes"/>
      <point x="129.848" y="510" type="line"/>
      <point x="26.196" y="510" type="line"/>
      <point x="26.196" y="441.043" type="line"/>
      <point x="129.848" y="441.043" type="line"/>
    </contour>
    <contour>
      <point x="767.5" y="0" type="line"/>
      <point x="848.696" y="0" type="line"/>
      <point x="848.696" y="510" type="line"/>
      <point x="767.5" y="510" type="line"/>
    </contour>
    <contour>
      <point x="764.587" y="653.739" type="line"/>
      <point x="851.609" y="653.739" type="line"/>
      <point x="851.609" y="743" type="line"/>
      <point x="764.587" y="743" type="line"/>
    </contour>
  </outline>
</glyph>
<glyph name="horncomb.case" format="2">
  <advance width="181.13043"/>
  <anchor x="0" y="510" name="_topright"/>
  <anchor x="0" y="604.196" name="topright"/>
  <outline>
    <contour>
      <point x="0" y="470.587" type="line"/>
      <point x="66.065" y="470.587" type="line" smooth="yes"/>
      <point x="163.5" y="470.587"/>
      <point x="181.13" y="493.848"/>
      <point x="181.13" y="580.543" type="curve" smooth="yes"/>
      <point x="181.13" y="604.196" type="line"/>
      <point x="122.043" y="604.196" type="line"/>
      <point x="122.043" y="573" type="line" smooth="yes"/>
      <point x="122.043" y="524"/>
      <point x="115.957" y="510"/>
      <point x="66.065" y="510" type="curve" smooth="yes"/>
      <point x="0" y="510" type="line"/>
    </contour>
  </outline>
</glyph>
<glyph name="n.001" format="2">
  <advance width="312"/>
  <anchor x="146" y="0" name="bottom"/>
  <anchor x="146" y="510" name="top"/>
  <outline>
    <contour>
      <point x="40" y="0" type="line"/>
      <point x="122" y="0" type="line"/>
      <point x="122" y="333" type="line" smooth="yes"/>
      <point x="122" y="431"/>
      <point x="127" y="448"/>
      <point x="160" y="448" type="curve" smooth="yes"/>
      <point x="189" y="448"/>
      <point x="192" y="440"/>
      <point x="192" y="346" type="curve" smooth="yes"/>
      <point x="192" y="0" type="line"/>
      <point x="274" y="0" type="line"/>
      <point x="274" y="362" type="line" smooth="yes"/>
      <point x="274" y="487"/>
      <point x="258" y="518"/>
      <point x="193" y="518" type="curve" smooth="yes"/>
      <point x="149" y="518"/>
      <point x="124" y="493"/>
      <point x="113" y="437" type="curve"/>
      <point x="109" y="437" type="line"/>
      <point x="102" y="510" type="line"/>
      <point x="40" y="510" type="line"/>
    </contour>
  </outline>
</glyph>
<glyph name="orn.018" format="2">
  <advance width="792"/>
  <outline>
    <contour>
      <point x="581" y="46" type="line"/>
      <point x="680" y="108"/>
      <point x="747" y="218"/>
      <point x="747" y="344" type="curve" smooth="yes"/>
      <point x="747" y="469"/>
      <point x="680" y="580"/>
      <point x="581" y="642" type="curve"/>
      <point x="549" y="591" type="line"/>
      <point x="631" y="540"/>
      <point x="687" y="448"/>
      <point x="687" y="344" type="curve" smooth="yes"/>
      <point x="687" y="239"/>
      <point x="632" y="148"/>
      <point x="549" y="96" type="curve"/>
    </contour>
    <contour>
      <point x="211" y="46" type="curve"/>
      <point x="243" y="96" type="line"/>
      <point x="160" y="148"/>
      <point x="105" y="239"/>
      <point x="105" y="344" type="curve" smooth="yes"/>
      <point x="105" y="448"/>
      <point x="161" y="540"/>
      <point x="243" y="591" type="curve"/>
      <point x="211" y="642" type="line"/>
      <point x="112" y="580"/>
      <point x="45" y="469"/>
      <point x="45" y="344" type="curve" smooth="yes"/>
      <point x="45" y="218"/>
      <point x="112" y="108"/>
    </contour>
    <contour>
      <point x="274" y="147" type="curve"/>
      <point x="306" y="198" type="line"/>
      <point x="258" y="229"/>
      <point x="225" y="282"/>
      <point x="225" y="344" type="curve" smooth="yes"/>
      <point x="225" y="405"/>
      <point x="258" y="459"/>
      <point x="307" y="490" type="curve"/>
      <point x="275" y="541" type="line"/>
      <point x="209" y="500"/>
      <point x="165" y="427"/>
      <point x="165" y="344" type="curve" smooth="yes"/>
      <point x="165" y="261"/>
      <point x="209" y="188"/>
    </contour>
    <contour>
      <point x="337" y="248" type="curve"/>
      <point x="369" y="299" type="line"/>
      <point x="355" y="308"/>
      <point x="345" y="324"/>
      <point x="345" y="344" type="curve" smooth="yes"/>
      <point x="345" y="364"/>
      <point x="355" y="380"/>
      <point x="370" y="389" type="curve"/>
      <point x="338" y="440" type="line"/>
      <point x="306" y="420"/>
      <point x="285" y="385"/>
      <point x="285" y="344" type="curve" smooth="yes"/>
      <point x="285" y="302"/>
      <point x="306" y="268"/>
    </contour>
    <contour>
      <point x="455" y="248" type="line"/>
      <point x="486" y="268"/>
      <point x="507" y="302"/>
      <point x="507" y="344" type="curve" smooth="yes"/>
      <point x="507" y="385"/>
      <point x="486" y="420"/>
      <point x="454" y="440" type="curve"/>
      <point x="422" y="389" type="line"/>
      <point x="437" y="380"/>
      <point x="447" y="364"/>
      <point x="447" y="344" type="curve" smooth="yes"/>
      <point x="447" y="324"/>
      <point x="437" y="308"/>
      <point x="423" y="299" type="curve"/>
    </contour>
    <contour>
      <point x="518" y="147" type="line"/>
      <point x="583" y="188"/>
      <point x="627" y="261"/>
      <point x="627" y="344" type="curve" smooth="yes"/>
      <point x="627" y="427"/>
      <point x="583" y="500"/>
      <point x="517" y="541" type="curve"/>
      <point x="485" y="490" type="line"/>
      <point x="534" y="459"/>
      <point x="567" y="405"/>
      <point x="567" y="344" type="curve" smooth="yes"/>
      <point x="567" y="282"/>
      <point x="534" y="229"/>
      <point x="486" y="198" type="curve"/>
    </contour>
  </outline>
</glyph>
<glyph name="upArrow.ss01" format="2">
  <advance width="345"/>
  <outline>
    <contour>
      <point x="30" y="231" type="line"/>
      <point x="315" y="231" type="line"/>
      <point x="173" y="516" type="line"/>
    </contour>
  </outline>
</glyph>
<glyph name="v.001" format="2">
  <advance width="322"/>
  <anchor x="160" y="0" name="bottom"/>
  <anchor x="160" y="510" name="top"/>
  <outline>
    <contour>
      <point x="97" y="0" type="line"/>
      <point x="225" y="0" type="line"/>
      <point x="295" y="510" type="line"/>
      <point x="214" y="510" type="line"/>
      <point x="163" y="65" type="line"/>
      <point x="159" y="65" type="line"/>
      <point x="108" y="510" type="line"/>
      <point x="27" y="510" type="line"/>
    </contour>
  </outline>
</glyph>
